<!--?xml version="1.0" encoding="UTF-8" standalone="no"?-->
<svg viewBox="0 0 629.40002 850.39722" version="1.1" id="svg378" sodipodi:docname="MapInkscape.svg" inkscape:version="1.2.1 (9c6d41e410, 2022-07-14)" width="100%" height="100%" xmlns:inkscape="http://www.inkscape.org/namespaces/inkscape" xmlns:sodipodi="http://sodipodi.sourceforge.net/DTD/sodipodi-0.dtd" xmlns="http://www.w3.org/2000/svg" xmlns:svg="http://www.w3.org/2000/svg">
  <defs id="defs382"></defs>
  <sodipodi:namedview id="namedview380" pagecolor="#ffffff" bordercolor="#000000" borderopacity="0.25" inkscape:showpageshadow="2" inkscape:pageopacity="0.0" inkscape:pagecheckerboard="0" inkscape:deskcolor="#d1d1d1" showgrid="false" inkscape:zoom="0.64622296" inkscape:cx="-161.70889" inkscape:cy="298.65853" inkscape:window-width="1920" inkscape:window-height="1017" inkscape:window-x="1072" inkscape:window-y="394" inkscape:window-maximized="1" inkscape:current-layer="Regions"></sodipodi:namedview>
  <!-- svg generated using QGIS www.qgis.org -->
  <g id="Regions" inkscape:groupmode="layer" inkscape:label="Regions" style="fill:none" transform="translate(-345.8,0.2)" inkscape:highlight-color="#ffffff" class="area" title="">
    <title id="title661">Regions</title>
    <g stroke="#232323" fill="rgb(196,60,57)" stroke-linejoin="round" stroke-width="0.4" id="WA" style="fill:none" inkscape:label="WA" inkscape:highlight-color="#ffffff" class="area" title="">
      <title id="title663">WA</title>
      <path d="m 975,487 v 1 1 1 1 1 1 1 1 1 1 1 1 1 1 1 1 1 1 1 1 1 2 1 1 1 1 1 1 55 36 51 18 24 2 10 1 h -1 -1 -1 v 1 h -1 -1 l -1,1 h -1 -1 v 1 h -1 l -1,1 h -1 l -1,1 h -1 v 1 h -1 -1 -1 v 1 h -1 -1 v 1 h -1 -1 v 1 h -1 -1 -1 v 1 h -1 -1 l -1,1 h -1 -1 v 1 h -1 -1 -1 l -1,1 h -1 -1 -1 v 1 h -1 -1 v 1 h -1 -1 -1 -1 l -1,1 h -1 -1 -1 -1 l -1,1 h -1 -1 -1 -1 l -1,1 h -1 -1 l -1,1 h -1 -1 v 1 h -1 -1 l -1,1 h -1 -1 -1 -1 v 1 h -1 -1 -1 -1 v 1 h -1 -1 -1 -1 -1 -1 -1 -1 -1 -1 -1 v 1 -1 1 h -1 -1 -1 -1 -1 -1 -1 -1 -1 -1 -1 -1 -1 -1 -1 -1 -1 -1 -1 -1 -1 v -1 h -1 -1 -1 -1 -1 v -1 h -1 -1 -1 -1 l -1,-1 h -1 -1 -1 v 1 h -1 l -1,1 h -1 -1 -1 -1 -1 -1 v 1 h -1 -1 v 1 h -1 -1 v 1 h -1 -1 v 1 h -1 v 1 h -1 -1 v 1 h -1 l -1,1 h -1 v 1 h -1 v 1 h -1 -1 v 1 h -1 v 1 h -1 -1 -1 v 1 h -1 -1 -1 -1 v 1 h -1 -1 -1 v 1 h -1 -1 l -1,1 h -1 v 1 h -1 -1 v 1 h -1 -1 v 1 h -1 -1 -1 v 1 h -1 -1 v 1 h -1 l -1,1 v 1 h -1 -1 v 1 h -1 -1 v 1 h -1 -1 v 1 h -1 -1 -1 -1 -1 -1 v 1 h -1 -1 -1 -1 -1 -1 -1 -1 v 1 h -1 -1 l -2,1 h -1 v 1 h -1 -1 l -1,1 -1,1 v 1 h -1 l -1,1 v 1 h -1 v 1 1 h -1 v 1 1 1 h -1 v 1 1 h -1 v 1 1 h -1 v 1 1 1 h -1 v 1 1 1 1 1 h -1 v 1 h -1 -1 -1 l -1,1 v 1 h 1 -1 -1 v 1 h -1 l -1,1 -1,1 v 1 1 h -1 l 1,1 v 1 h -1 -1 l -1,1 h -1 v 1 h -1 v 1 -1 h -1 v 1 h -1 -1 v 1 1 h -1 -1 v -1 h -1 l -1,-1 h -1 -1 -1 -1 v 1 h -1 v 1 h -1 v 1 h -1 v 1 -1 1 h -1 -1 -1 v 1 h -1 -1 v -1 h 1 -1 v -1 1 -1 -1 -1 h -1 v -1 h -1 l -1,-1 h -1 -1 -1 v 1 h -1 v 1 -1 h -1 -1 -1 -1 v 1 -1 h -1 v 1 h -1 v -1 h -1 -1 -1 -1 -1 -1 -1 -1 -1 v 1 h -1 v 1 h 1 -1 v 1 -1 h -1 -1 v 1 h -1 v -1 h -1 v -1 h -1 -1 -1 -1 -1 v 1 -1 1 h -1 -1 l -1,1 v 1 h -1 v 1 -1 h -1 v 1 h -1 v -1 1 h -1 -1 -1 -1 1 v -1 h -1 v 1 -1 1 -1 h 1 v -1 h -1 v -1 -1 h -1 v -1 -1 h -1 l -1,-1 h -1 -1 1 -1 -1 -1 -1 v 1 1 h -1 -1 -1 -1 v 1 h -1 v -1 h -1 1 -1 l -1,-1 h -1 -1 v 1 h -1 v -1 h -1 -1 v -1 h -1 -1 l -1,-1 v 1 h -1 -1 v -1 1 -1 h -1 -1 v 1 -1 h -1 -1 -1 v 1 -1 h -1 -1 v 1 h -1 -1 -1 -1 v 1 h -1 1 -1 v 1 -1 h -1 -1 v -1 h -1 v 1 h -1 1 -1 -1 -1 -1 -1 -1 -1 -1 -1 -1 v 1 -1 1 h -1 -1 -1 -1 -1 -1 -1 -1 -1 -1 -1 v 1 h -1 v 1 h -1 -1 v 1 h -1 -1 -1 -1 -1 v -1 1 -1 h -1 -1 -1 -1 -1 -1 -1 -1 -1 v 1 -1 1 h -1 v -1 1 -1 h -1 -1 v -1 h -1 v 1 -1 1 h -1 -1 v 1 h -1 -1 v 1 -1 1 -1 h -1 -1 -1 -1 1 -1 1 -1 1 -1 v 1 h -1 1 -1 -1 v 1 1 -1 1 h -1 -1 v 1 h -1 -1 v 1 h -1 -1 v 1 h -1 v 1 h -1 v 1 1 h -1 v 1 h -1 v 1 h -1 v 1 1 -1 -1 -1 -1 -1 -1 -1 -1 -1 -1 -1 -1 -1 -1 -1 -1 -1 -1 -1 h -1 -1 v -1 h -1 v -1 h 1 v -1 -1 h -1 1 v -1 l 1,-1 v -1 h 1 v -1 h 1 v -1 -1 h -1 -1 v -1 h -1 -1 l 1,-1 h 1 v -1 h 1 v -1 h 1 v -1 h 1 l 1,-1 h 1 v -1 h 1 v -1 h 1 v -1 h 1 1 v 1 h 1 l 1,1 h 1 v -1 h 1 v -1 h 1 1 1 v -1 h 1 1 v -1 h 1 l 1,-1 h 1 v -1 h -1 v -1 -1 -1 h 1 v -1 h 1 1 v -1 h -1 v -1 h 1 1 1 1 1 1 1 v -1 h 1 v -1 -1 h 1 v -1 h 1 v -1 h 1 1 v -1 h 1 v -1 h 1 l 1,-1 h 1 v -1 h 1 v -1 h 1 1 v -1 h 1 v -1 h 1 l 1,-1 h -1 -1 -1 -1 -1 -1 -1 -1 -1 -1 -1 -1 -1 -1 -1 -1 -1 -1 -1 -1 -1 -1 -1 v -1 -1 -1 -1 -1 -1 -1 -1 -1 -1 -1 -1 -1 -1 -1 -1 -1 -1 -1 -1 -1 -1 -1 -1 -1 -1 -1 -1 -1 -1 -1 -1 -1 -1 -1 -1 -1 -1 -1 -1 -1 -1 -1 -1 -1 -1 -1 -1 -1 -1 -1 -1 -1 -1 -1 -1 -1 -1 -1 -1 -1 -1 -1 -1 -1 -1 -1 -1 -1 -1 -1 -1 -1 -1 -1 -1 -1 -1 -1 -1 -1 -1 -1 -1 -1 -1 -1 -1 -1 -1 -1 -1 -1 -1 -1 -1 -1 -1 -1 -1 -1 -1 -1 h -1 v -1 h -1 -1 -1 v -1 h -1 -1 l -1,-1 h -1 -1 v -1 h -1 -1 -1 v -1 h -1 -1 -1 v -1 h -1 -1 l -1,-1 h -1 -1 v -1 h -1 -1 -1 v -1 h -1 -1 -1 v -1 h -1 -1 v -1 h -1 -1 -1 v -1 h -1 -1 -1 v -1 h -1 -1 l -1,-1 h -1 -1 v -1 h -1 -1 -1 v -1 h -1 -1 -1 v -1 h -1 -1 -1 v -1 h -1 -1 l -1,-1 h -1 -1 v -1 h -1 -1 -1 v -1 h -1 -1 -1 v -1 h -1 v -1 -1 -1 h -1 v -1 -1 -1 -1 -1 h -1 v -1 -1 -1 -1 -1 h -1 v -1 -1 -1 -1 -1 -1 -1 h 1 1 1 1 1 1 1 1 1 1 1 1 v 1 1 1 1 1 1 1 h 1 1 1 1 1 1 1 1 1 1 1 1 1 1 1 1 1 1 1 l 1,-1 v -1 h 1 v -1 h 1 v -1 h 1 v -1 l 1,-1 v -1 h 1 1 1 1 1 1 1 1 1 1 1 1 1 1 v -1 -1 h 1 v -1 -1 h 1 v -1 l 1,-1 v -1 h 1 v -1 -1 -1 h 1 v -1 -1 -1 -1 -1 -1 -1 -1 -1 -1 -1 -1 -1 -1 -1 -1 h 1 1 1 1 1 1 1 1 1 v -1 -1 -1 -1 -1 -1 h 1 1 1 1 1 1 v -1 -1 -1 -1 -1 -1 -1 -1 -1 -1 h -1 v -1 -1 -1 -1 -1 -1 -1 -1 -1 -1 -1 -1 -1 -1 -1 -1 -1 h -1 -1 -1 v -1 -1 -1 -1 -1 h -1 v -1 -1 -1 -1 -1 -1 -1 -1 h -19 v -2 h -10 -3 l -2,-1 v -1 -1 -1 -1 h 1 v -1 -1 l 1,-1 v -1 h 1 v -1 h 1 v -1 -1 h 1 v -1 -1 -1 h 1 v -1 h 1 v -1 l 1,-1 h 1 v -1 h 1 v -1 h 1 v -1 l 1,-1 v -1 h 1 v -1 h 1 v -1 h 1 v -1 -1 h 1 v -1 h 1 1 v -1 h 1 1 v -1 h 1 v -1 h 1 1 v -1 h 1 v -1 -1 -1 l 1,-1 v -1 l 1,-1 v -1 h 1 v -1 -1 h 1 v -1 h 1 v -1 -1 h 1 v -1 -1 -1 h 1 v -1 h 1 v -1 -1 h 1 v -1 -1 h 1 v -1 -1 -1 h 1 v -1 -1 h 1 v -1 -1 -1 -1 -1 -1 -1 -1 h -1 v -1 -1 -1 -1 -1 -1 -1 -1 -1 -1 -1 -1 h 1 v -1 -1 h 1 v -1 h 1 v -1 h 1 1 v -1 -1 h -1 v -1 -1 h -1 v -1 -1 h -1 v -1 -1 h -1 v -1 -1 -1 h -1 v -1 -1 h -1 v -1 -1 -1 -1 -1 -1 l -1,-1 h 1 v -1 -1 -1 -1 h 1 v -1 -1 -1 -1 h -1 v -1 h 1 l 1,-1 v -1 l 1,-1 v -1 -1 h 1 1 v -1 l 1,-1 v -1 -1 h 1 v -1 l 1,-1 v -1 h 1 v -1 l 1,-1 v -1 h 1 v -1 h 1 l 1,-1 v -1 h 1 v -1 -1 h 1 v -1 l 1,-1 v -1 h 1 v -1 l 1,-1 h 1 1 v -1 h 1 1 v -1 h 1 v -1 -1 h 1 v -1 h 1 1 1 1 1 1 1 1 1 1 1 1 1 1 v -1 -1 -1 -1 -1 -1 -1 -1 -1 -1 -1 h 1 1 1 1 1 1 1 1 1 1 1 1 1 1 1 1 1 1 1 1 1 1 1 1 1 1 1 1 1 1 1 1 1 1 1 1 1 1 1 1 1 1 1 1 1 1 1 1 1 1 1 1 1 1 1 1 1 1 1 1 1 1 1 1 1 1 1 1 1 1 1 1 1 1 1 1 1 1 1 1 1 1 1 1 1 1 1 1 1 1 1 1 1 1 1 1 1 1 1 1 1 1 1 1 1 1 1 1 1 1 1 1 1 1 1 1 1 1 1 1 1 1 1 1 1 1 1 1 1 1 1 1 1 1 1 1 1 1 1 1 1 1 1 1 1 1 1 1 1 1 1 1 1 1 1 1 1 1 1 1 1 1 1 1 1 1 1 1 1 1 1 1 1 1 1 1 1 1 1 1 1 1 1 1 1 1 1 1 1 1 1 1 1 1 1 1 1 1 1 1 1 1 1 1 1 1 1 1 1 1 1 1 1 1 1 1 1 1 1 1 1 1 1 1 1 1 1 1 1 1 1 1 1 1 1 1 1 1 1 1 1 1 1 1 1 1 1 1 1 1 1 1 1 1 1 1 1 1 1 1 1 1 1 1 1 1 1 1 1 1 1 1 1 1 1 1 1 1 1 1 1 1 1 1 1 1 1 1 1 1 1 1 1 1 1 1 1 1 1 1 1 1 1 1 1 1 1 1 1 1 1 1 1 1 1 1 1 v -1 -1 -1 -1 -1 -1 -1 -1 -1 9 15 13 15 45 2 1 11" id="Goldfields" style="fill:none" inkscape:label="Goldfields" class="area active" title="">
        <title id="title665">Goldfields</title>
      </path>
      <path d="m 518,780 h 1 1 v 1 h 1 1 1 v -1 1 h 1 1 v 1 h 1 v 1 h -1 v 1 h 1 1 1 1 1 1 v -1 h 1 v 1 -1 h 1 1 1 v -1 -1 h 1 1 v -1 -1 h 1 1 1 1 1 1 1 1 1 1 1 v -1 h 1 v -1 1 h 1 v -1 h 1 1 v 1 h 1 1 1 v -1 h 1 v 1 h 1 1 1 1 1 1 v -1 -1 h 1 1 v 1 h 1 v 1 h 1 v -1 h 1 v -1 h 1 1 v 1 h 1 v 1 h 1 v -1 h 1 1 v -1 h 1 v 1 h 1 1 1 1 v 1 h 1 v -1 h 1 1 1 1 v 1 1 1 1 1 1 1 1 1 h 1 1 1 1 1 1 1 1 1 1 1 1 1 1 v 1 h 1 1 v 1 1 h -1 v 1 h -1 v 1 l -1,1 v 1 h -1 1 v 1 1 h -1 v 1 h 1 v 1 h 1 1 v 1 1 1 1 1 1 1 1 1 1 1 1 1 1 1 1 1 1 1 h -1 -1 1 -1 1 1 v 1 1 1 h 1 v 1 h 1 v -1 h 1 v 1 h -1 -1 v 1 h -1 1 -1 -1 v -1 -1 h -1 1 -1 1 -1 -1 -1 v 1 1 h -1 1 v 1 1 h 1 -1 -1 v 1 -1 h -1 v -1 h -1 -1 -1 v 1 1 1 h -1 v 1 h -1 v -1 -1 h -1 -1 -1 -1 v -1 h -1 -1 -1 -1 v -1 h -1 -1 -1 -1 v 1 h -1 v 1 h 1 -1 -1 -1 -1 v 1 -1 1 h -1 -1 v 1 h -1 v 1 1 h 1 v 1 h -1 1 -1 v 1 h -1 v 1 -1 1 -1 h -1 v 1 h -1 -1 v 1 h -1 -1 -1 -1 v 1 h -1 -1 1 -1 -1 v 1 h -1 v 1 h -1 v 1 h -1 v 1 1 1 h 1 v 1 h -1 v 1 -1 h -1 -1 -1 -1 v 1 h -1 -1 -1 -1 v 1 h 1 -1 -1 1 -1 v 1 h 1 1 -1 1 -1 v 1 h 1 -1 v 1 h -1 v -1 h -1 -1 -1 -1 -1 v 1 h -1 -1 -1 -1 v -1 h 1 v -1 -1 h -1 v 1 1 h -1 v 1 1 h -1 v -1 1 -1 h -1 -1 v 1 h 1 v 1 h 1 1 v -1 h 1 v 1 1 h 1 1 1 -1 -1 v 1 h -1 -1 -1 v -1 h -1 -1 v -1 h -1 -1 -1 v -1 h -1 -1 -1 -1 -1 v 1 1 h -1 v 1 h 1 -1 1 -1 1 v 1 -1 h -1 -1 v -1 h -1 -1 v -1 h -1 -1 v 1 -1 1 -1 1 -1 h -1 -1 v -1 h -1 -1 v -1 h -1 -1 v -1 h 1 1 v 1 h 1 1 1 -1 1 v -1 -1 h -1 v 1 h -1 v -1 1 -1 h -1 -1 v 1 h -1 1 -1 1 -1 -1 v 1 h 1 -1 1 v 1 h -1 v -1 h -1 -1 -1 -1 -1 -1 v 1 h -1 1 v 1 h -1 v -1 h -1 l -1,-1 h -1 l 1,1 h -1 v -1 1 -1 h -1 -1 v 1 -1 h -1 -1 -1 v 1 h -1 1 v 1 h -1 v -1 h -1 -1 -1 1 -1 -1 1 -1 v -1 h -1 -1 -1 v -1 h 1 1 1 v -1 h 1 -1 v -1 h 1 -1 -1 v -1 -1 h -1 -1 -1 1 v -1 h 1 v -1 h 1 -1 1 -1 1 1 -1 v -1 h 1 v -1 h -1 1 v -1 h 1 v -1 -1 -1 h 1 v -1 h -1 -1 -1 v -1 h 1 -1 l 1,-1 v -1 h -1 1 v -1 h -1 v -1 -1 -1 h 1 v -1 h -1 v -1 h -1 -1 -1 v -1 h -1 -1 v -1 h 1 v -1 -1 -1 h 1 v -1 -1 1 h -1 v -1 h 1 1 1 l 1,-1 h 1 1 v -1 -1 -1 -1 h -1 v -1 h -1 1 -1 1 -1 v -1 -1 -1 h -1 v -1 h -1 v -1 -1 h -1 v -1 h 1 1 v -1 h 1 v -1 h -1 v -1 -1 h 1 v -1 -1 -1 -1 h -1 1 v -1 h -1 v -1 h -1 1 v -1 1 h 1 1 v -1 1 h 1 v -1 h 1 v 1 h 1 1 v -1 h 1 1 1 v -1 -1 -1 -1 -1 -1 -1 1 h 1 1 -1 v -1 h 1 1 v 1 l 1,-1 v 1 h 1 1 1 1 1 1 1 v -1 -1 h 1 1 v -1 h 1 1 1 v -1 h 1 v 1 -1 h 1 1 v -1 h 1" id="Great_Southern" style="fill:none" inkscape:label="Great Southern" class="area" title="">
        <title id="title718">Great Southern</title>
      </path>
      <path d="m 466,763 h 1 v 1 1 1 h 1 1 1 v -1 h 1 1 1 v -1 h 1 1 v 1 1 1 1 1 1 1 1 1 1 h -1 v 1 1 1 1 1 1 1 1 1 h -1 -1 v 1 1 h -1 -1 -1 1 v 1 1 h 1 1 1 v 1 h 1 1 v 1 h 1 1 v 1 h 1 v 1 h 1 1 1 1 v 1 h 1 v -1 1 h 1 1 v 1 -1 h 1 v 1 -1 h 1 1 1 v 1 h 1 v 1 h -1 1 v 1 1 1 1 h -1 v 1 1 h 1 v 1 h -1 v 1 h -1 -1 v 1 h 1 v 1 1 h 1 v 1 h 1 v 1 1 1 h 1 -1 1 -1 1 v 1 h 1 v 1 1 1 1 h -1 -1 l -1,1 h -1 -1 -1 v 1 h 1 v -1 1 1 h -1 v 1 1 1 h -1 v 1 h 1 1 v 1 h 1 1 1 v 1 h 1 v 1 h -1 v 1 1 1 h 1 v 1 h -1 1 v 1 l -1,1 h 1 -1 v 1 h 1 1 1 v 1 h -1 v 1 1 1 h -1 v 1 h -1 1 v 1 h -1 v 1 h 1 -1 -1 1 -1 1 -1 v 1 h -1 v 1 h -1 1 1 1 v 1 1 h 1 1 -1 v 1 h 1 -1 v 1 h -1 -1 -1 v 1 1 h -1 v -1 1 h -1 l 1,-1 h -1 v 1 -1 1 -1 1 -1 1 h -1 -1 v 1 -1 h -1 v -1 h -1 -1 1 -1 -1 v -1 h -1 v 1 h -1 v -1 h -1 v -1 h -1 -1 v -1 h -1 -1 v -1 h -1 -1 v -1 h -1 -1 v -1 h -1 -1 -1 v -1 h -1 -1 -1 -1 -1 -1 -1 v -1 -1 h -1 v -1 h -1 v -1 -1 h -1 v -1 h -1 v -1 h -1 v -1 h -1 v -1 h -1 v -1 h -1 l -1,-1 h -1 v -1 h -1 v -1 h -1 v -1 h -1 v -1 h -1 -1 v -1 h -1 l -1,-1 h -1 -1 1 -1 v -1 h -1 -1 v -1 h -1 v -1 h -1 -1 -1 v -1 h -1 -1 -1 -1 -1 -1 -1 -1 v -1 h 1 v -1 h -1 v 1 -1 h -1 v 1 1 h 1 v 1 1 h -1 -1 v -1 1 -1 h -1 v -1 h -1 v -1 h -1 v -1 h -1 v -1 -1 h 1 v -1 h -1 v -1 -1 h -1 v -1 -1 -1 -1 -1 -1 h -1 v -1 h 1 v -1 -1 h -1 1 -1 1 -1 v -1 -1 h 1 -1 1 v -1 -1 -1 -1 -1 h -1 1 -1 v -1 -1 1 -1 1 -1 h 1 v -1 h 1 v -1 -1 -1 h -1 v -1 -1 h 1 1 v 1 h 1 -1 1 -1 1 1 -1 1 -1 1 -1 1 -1 l 1,1 v 1 h 1 v 1 h 1 1 1 v 1 h 1 1 1 1 1 v -1 h 1 1 1 v -1 h 1 v -1 h 1 v -1 h 1 v -1 h 1 v -1 h 1 v -1 h 1 v -1 h 1 v -1 h 1 v -1 -1 -1 h 1 v -1 -1 h 1 -1 1 -1 1 v 1 -1 h 1 v -1 -1 -1 -1 -1 -1 -1 -1 -1 -1 -1 -1 -1 h -1 v -1 -1 h 1 1 1 1 1 1 1 1 1 1 1 1 1 1 1 1 1 1 1 1 1 -1 1 v 1 1 -1" id="South_West" style="fill:none" inkscape:label="South West" class="area" title="">
        <title id="title669">South West</title>
      </path>
      <path d="m 459,732 v 1 h 1 1 1 1 v 1 1 1 h 1 1 1 v 1 h 1 v 1 h 1 v 1 1 h 1 v 1 1 1 1 1 h 1 1 1 1 1 v 1 h 1 v 1 h 1 v 1 h 1 v 1 1 h 1 v 1 h 1 v 1 h 1 v 1 h 1 v 1 1 h 1 v 1 h 1 1 1 v 1 1 1 1 1 h -1 -1 v 1 1 1 1 h -1 v 1 h -1 v 1 h -1 v 1 h -1 v -1 h -1 -1 v 1 h -1 -1 v -1 -1 -1 -1 h -1 -1 v 1 h -1 -1 -1 v 1 h -1 -1 -1 v -1 -1 -1 h -1 v 1 -1 -1 h -1 1 -1 -1 -1 -1 -1 -1 -1 -1 -1 -1 -1 -1 -1 -1 -1 -1 -1 -1 -1 -1 -1 v -1 -1 -1 h -1 v -1 -1 -1 -1 -1 h -1 v -1 -1 -1 -1 h 1 v -1 -1 1 -1 h 1 v -1 h 1 v -1 h 1 v 1 l -1,1 h -1 1 v 1 h -1 -1 v 1 h 1 v 1 1 1 h 1 v 1 1 h 1 -1 1 -1 1 v 1 h 1 v -1 -1 h -1 v -1 -1 h -1 v -1 -1 h -1 1 -1 v -1 h 1 v 1 h 1 v 1 -1 h 1 v 1 h 1 v -1 h 1 -1 1 v -1 -1 h -1 v -1 h -1 v 1 -1 -1 1 -1 h -1 1 -1 1 v -1 -1 h 1 v -1 h 1 1 1 1 v -1 -1 h -1 v -1 h 1 v -1 -1 h 1 v -1 -1 -1 -1 -1 h 1 v -1 h 1 1 v 1 h 1 v -1 h 1" id="Peel" style="font-variation-settings:normal;opacity:1;vector-effect:none;fill:none;fill-opacity:1;stroke:#232323;stroke-width:0.4;stroke-linecap:butt;stroke-linejoin:miter;stroke-miterlimit:4;stroke-dasharray:none;stroke-dashoffset:0;stroke-opacity:1;-inkscape-stroke:none;stop-color:#000000;stop-opacity:1" inkscape:label="Peel" class="area" title="">
        <title id="title720">Peel</title>
      </path>
      <path d="m 441,703 h 1 1 1 1 1 v 1 h 1 1 1 1 1 1 1 v 1 1 1 1 1 1 h 1 1 1 1 1 v -1 h 1 1 1 1 1 1 1 1 1 1 v 1 1 1 h 1 1 v 1 h 1 1 v 1 h 1 v 1 h -1 v 1 h 1 v 1 h -1 1 v 1 1 h -1 v 1 1 h 1 1 1 v 1 1 1 1 h -1 -1 -1 -1 v 1 h 1 v 1 h -1 -1 v 1 1 1 1 1 h 1 v 1 h 1 v 1 h 1 -1 -1 -1 -1 -1 l -1,1 v 1 h -1 -1 -1 -1 v -1 -1 -1 h -1 -1 -1 -1 v -1 h -1 v 1 h -1 v -1 h -1 -1 v 1 h -1 v 1 1 1 1 1 h -1 v 1 1 h -1 v 1 h 1 v 1 1 h -1 -1 -1 -1 v -1 -1 h -1 v -1 h -1 1 v -1 1 -1 h 1 v -1 h -1 v -1 h -1 v -1 h -1 v -1 1 h 1 1 v -1 h 1 v -1 -1 h 1 v -1 h -1 v -1 -1 1 -1 h -1 1 v -1 -1 h -1 1 v -1 h -1 1 v 1 -1 h -1 1 -1 1 v -1 h 1 v -1 1 h 1 1 v -1 h 1 v 1 1 -1 h 1 1 -1 -1 v -1 -1 h 1 v -1 h 1 v -1 h 1 1 v -1 h 1 -1 v 1 h -1 -1 v 1 h -1 v -1 1 1 -1 1 l -1,-1 h -1 v 1 h -1 v 1 h -1 v -1 1 1 h -1 v 1 h -1 v -1 h 1 v -1 -1 -1 -1 -1 -1 -1 -1 h -1 v -1 -1 -1 1 -1 -1 h -1 v -1 -1 h -1 v -1 -1 h -1 v -1 -1 h -1 v -1 h -1 v -1 -1 h -1 v -1 h -1 v -1" id="Metro" style="font-variation-settings:normal;opacity:1;vector-effect:none;fill:none;fill-opacity:1;stroke:#232323;stroke-width:0.4;stroke-linecap:butt;stroke-linejoin:miter;stroke-miterlimit:4;stroke-dasharray:none;stroke-dashoffset:0;stroke-opacity:1;-inkscape-stroke:none;stop-color:#000000;stop-opacity:1" inkscape:label="Metro" class="area" title="">
        <title id="title722">Metro</title>
      </path>
      <path d="m 461,653 h 1 1 1 1 l 1,1 v -1 h 1 1 1 v -1 h 1 v 1 h 1 1 1 v -1 -1 -1 -1 -1 -1 -1 -1 -1 h -1 v -1 h 1 v -1 h 1 1 1 1 v 1 -1 h 1 1 1 1 1 1 1 1 1 1 1 v -1 h 1 v -1 1 h 1 1 -1 v -1 h 1 l 1,-1 h -1 v -1 h -1 v -1 -1 -1 h 1 1 1 v 1 h 1 1 1 1 1 1 1 1 1 v 1 1 h 1 1 1 1 1 1 1 1 1 1 1 1 1 1 1 1 v -1 h 1 v -1 1 -1 h 1 1 -1 l 1,-1 h -1 v 1 -1 h 1 v -1 h -1 v -1 h 1 v -1 -1 h 1 -1 v -1 h 1 v 1 -1 1 h 1 v 1 h 1 1 v 1 h 1 v -1 1 l 1,-1 v -1 h -1 1 -1 v -1 1 -1 h 1 1 1 1 1 1 1 1 1 1 1 1 1 1 1 1 1 1 1 1 1 1 1 1 1 1 1 1 1 1 1 1 1 v 1 h 1 1 1 v 1 h 1 1 1 v 1 h 1 1 l 1,1 h 1 1 v 1 h 1 1 1 v 1 h 1 1 1 v 1 h 1 1 1 v 1 h 1 1 l 1,1 h 1 1 v 1 h 1 1 1 v 1 h 1 1 1 v 1 h 1 1 v 1 h 1 1 1 v 1 h 1 1 1 v 1 h 1 1 l 1,1 h 1 1 v 1 h 1 1 1 v 1 h 1 1 1 v 1 h 1 1 l 1,1 h 1 1 v 1 h 1 1 1 v 1 h 1 v 1 1 1 1 1 1 1 1 1 1 1 1 1 1 1 1 1 1 1 1 1 1 1 1 1 1 1 1 1 1 1 1 1 1 1 1 1 1 1 1 1 1 1 1 1 1 1 1 1 1 1 1 1 1 1 1 1 1 1 1 1 1 1 1 1 1 1 1 1 1 1 1 1 1 1 1 1 1 1 1 1 1 1 1 1 1 1 1 1 1 1 1 1 1 1 1 1 1 1 1 1 1 1 h 1 1 1 1 1 1 1 1 1 1 1 1 1 1 1 1 1 1 1 1 1 1 1 l -1,1 h -1 v 1 h -1 v 1 h -1 -1 v 1 h -1 v 1 h -1 l -1,1 h -1 v 1 h -1 v 1 h -1 -1 v 1 h -1 v 1 h -1 v 1 1 h -1 v 1 h -1 -1 -1 -1 -1 -1 -1 v 1 h 1 v 1 h -1 -1 v 1 h -1 v 1 1 1 h 1 v 1 h -1 l -1,1 h -1 v 1 h -1 -1 v 1 h -1 -1 -1 v 1 h -1 v 1 h -1 l -1,-1 h -1 v -1 h -1 -1 v 1 h -1 v 1 h -1 v 1 h -1 l -1,1 h -1 v 1 h -1 v 1 h -1 v 1 h -1 l -1,1 h 1 -1 -1 -1 -1 -1 -1 -1 -1 -1 -1 -1 -1 -1 v -1 -1 -1 -1 -1 -1 -1 -1 -1 h -1 -1 -1 -1 v 1 h -1 v -1 h -1 -1 -1 -1 v -1 h -1 v 1 h -1 -1 v 1 h -1 v -1 h -1 v -1 h -1 -1 v 1 h -1 v 1 h -1 v -1 h -1 v -1 h -1 -1 v 1 1 h -1 -1 -1 -1 -1 -1 v -1 h -1 v 1 h -1 -1 -1 v -1 h -1 -1 v 1 h -1 v -1 1 h -1 v 1 h -1 -1 -1 -1 -1 -1 -1 -1 -1 -1 -1 v 1 1 h -1 -1 v 1 1 h -1 -1 -1 v 1 -1 h -1 v 1 h -1 -1 -1 -1 -1 -1 v -1 h 1 v -1 h -1 v -1 h -1 -1 v -1 1 h -1 -1 -1 v -1 h -1 -1 -1 v 1 h -1 -1 v 1 -1 h -1 v 1 h -1 -1 -1 v 1 h -1 -1 v 1 1 h -1 -1 -1 -1 -1 -1 -1 v -1 l -1,1 v -1 h -1 -1 v 1 h 1 -1 -1 v -1 1 1 1 1 1 1 1 h -1 -1 -1 v 1 h -1 -1 v -1 h -1 v 1 h -1 v -1 1 h -1 -1 v -1 1 h -1 -1 -1 v 1 -1 h -1 v 1 -1 h -1 -1 v -1 1 h -1 v -1 h -1 -1 -1 -1 v -1 h -1 v -1 h -1 -1 v -1 h -1 -1 v -1 h -1 -1 -1 v -1 -1 h -1 1 1 1 v -1 -1 h 1 1 v -1 -1 -1 -1 -1 -1 -1 -1 -1 h 1 v -1 -1 -1 -1 -1 -1 h 1 1 v -1 h 1 1 v 1 h 1 v -1 h 1 v -1 h 1 v -1 h 1 v -1 -1 -1 -1 h 1 1 v -1 -1 -1 -1 -1 h -1 -1 -1 v -1 h -1 v -1 -1 h -1 v -1 h -1 v -1 h -1 v -1 h -1 v -1 -1 h -1 v -1 h -1 v -1 h -1 v -1 h -1 -1 -1 -1 -1 v -1 -1 -1 -1 -1 h -1 v -1 -1 h -1 v -1 h -1 v -1 h 1 v -1 l 1,-1 h 1 1 1 1 1 -1 v -1 h -1 v -1 h -1 v -1 -1 -1 -1 -1 h 1 1 v -1 h -1 v -1 h 1 1 1 1 v -1 -1 -1 -1 h -1 -1 -1 v -1 -1 h 1 v -1 -1 h -1 1 v -1 h -1 v -1 h 1 v -1 h -1 v -1 h -1 -1 v -1 h -1 -1 v -1 -1 -1 h -1 -1 -1 -1 -1 -1 -1 -1 -1 -1 v 1 h -1 -1 -1 -1 -1 v -1 -1 -1 -1 -1 -1 h -1 -1 -1 -1 -1 -1 -1 v -1 h -1 -1 -1 -1 -1 v -1 h -1 v -1 -1 h -1 v -1 h -1 v -1 h -1 v -1 -1 h -1 v -1 -1 h -1 v -1 -1 -1 h -1 v -1 -1 h -1 v -1 -1 h -1 v -1 -1 -1 h -1 v -1 h -1 v -1 -1 h -1 v -1 h -1 v -1 -1 h -1 v -1 h -1 v -1 -1 h -1 v -1 -1 -1 h -1 v -1 -1 h -1 v -1 h -1 v -1 h 1 v -1 h -1 v -1 h -1 v -1 h 1 v -1 h -1 1 v -1 h -1 v -1 -1 -1 -1 h -1 v -1 -1 h 1 v -1 h -1 v -1 h -1 v -1 -1 -1 -1 h 1 1 v -1 h -1 v -1 -1 h 1 1 v 1 1 h 1 1 1 1 1 1 v 1 1 h 1 1 1 1 1 1 1 1 1 1 v 1 1 h 1 1 1 v -1 h 1 1 1 1 1 v -1 h 1 1 l 1,-1 h 1 1 v 1 1 1 -1 h 1 1 1 v -1 h 1 1 1 1 v 1 h 1 1 1" id="Wheatbelt" style="fill:none" inkscape:label="Wheatbelt" class="area" title="">
        <title id="title724">Wheatbelt</title>
      </path>
      <path d="m 431,534 v -1 -1 -1 -1 -1 -1 -1 -1 -1 -1 -1 -1 -1 -1 -1 -1 h 1 1 1 1 v -1 -1 -1 -1 -1 -1 -1 -1 -1 -1 -1 -1 -1 -1 -1 -1 -1 -1 -1 -1 h 1 1 1 1 v -1 -1 -1 -1 -1 -1 -1 -1 -1 -1 -1 h -1 v -1 -1 -1 -1 -1 -1 h 1 1 1 v -1 h 1 1 v -1 -1 -1 -1 h 1 1 1 1 v -1 -1 h 1 1 1 1 1 1 1 1 1 1 1 1 1 1 1 1 1 1 1 1 1 1 1 1 1 1 1 1 1 1 v -2 h 1 1 v -2 h 1 1 1 1 1 1 1 1 1 1 1 1 1 1 1 1 v 1 1 h 1 1 1 1 1 1 1 1 1 1 1 1 1 v -1 h 1 1 v -1 h 1 1 1 v -1 -1 -1 -1 -1 -1 -1 -1 -1 h 1 1 1 1 1 1 1 1 1 1 1 1 v 1 h 1 1 1 1 v -1 -1 -1 -1 h -1 v -1 -1 -1 h 1 1 v -1 -1 -1 -1 -1 -1 -1 -1 -1 -1 -1 -1 -1 -1 h -1 -1 -1 v -1 -1 -1 h 1 1 1 1 1 1 v -1 -1 -1 h -1 -1 -1 -1 -1 -1 -1 -1 -1 -1 v -1 -1 -1 -1 -1 -1 -1 h 1 1 v -1 -1 -1 -1 -1 -1 h 1 1 1 1 1 1 v -1 -1 -1 -1 -1 -1 -1 -1 -1 -1 -1 -1 -1 -1 -1 -1 -1 -1 -1 h -1 -1 -1 -1 -1 -1 -1 -1 v -1 -1 -1 -1 -1 -1 h 1 1 1 1 v -1 -1 -1 -1 h 1 v -1 -1 -1 -1 h -1 -1 -1 v -1 -1 h -1 v -1 -1 h 1 1 1 v -1 -1 -1 h 1 1 1 1 1 v 1 h 1 1 1 1 1 1 v -1 h 1 1 1 v -1 -1 -1 h 1 1 1 1 v 1 h 1 1 1 1 1 1 1 1 1 1 v 1 1 1 1 1 h 1 1 1 1 1 1 1 1 1 1 1 1 1 1 1 1 v -1 h 1 1 v 1 h 1 1 1 1 1 1 1 1 1 1 1 1 1 1 1 1 1 1 1 1 1 1 1 1 1 1 1 1 1 1 1 1 1 1 1 1 1 1 1 1 1 1 1 1 1 1 1 1 1 1 1 1 1 1 1 1 1 1 1 1 1 1 1 1 1 1 1 1 1 1 1 1 1 1 1 1 v 1 1 1 h -1 v 1 h 1 -1 v 1 1 1 h -1 v 1 h -1 v 1 1 h -1 v 1 h -1 v 1 h -1 v 1 1 h -1 v 1 h -1 -1 v 1 h -1 -1 l -1,1 v 1 h -1 v 1 l -1,1 v 1 h -1 v 1 1 h -1 v 1 l -1,1 h -1 v 1 h -1 v 1 l -1,1 v 1 h -1 v 1 l -1,1 v 1 h -1 v 1 1 l -1,1 v 1 h -1 -1 v 1 1 l -1,1 v 1 l -1,1 h -1 v 1 h 1 v 1 1 1 1 h -1 v 1 1 1 1 h -1 l 1,1 v 1 1 1 1 1 1 h 1 v 1 1 h 1 v 1 1 1 h 1 v 1 1 h 1 v 1 1 h 1 v 1 1 h 1 v 1 1 h -1 -1 v 1 h -1 v 1 h -1 v 1 1 h -1 v 1 1 1 1 1 1 1 1 1 1 1 1 h 1 v 1 1 1 1 1 1 1 1 h -1 v 1 1 h -1 v 1 1 1 h -1 v 1 1 h -1 v 1 1 h -1 v 1 h -1 v 1 1 1 h -1 v 1 1 h -1 v 1 h -1 v 1 1 h -1 v 1 l -1,1 v 1 l -1,1 v 1 1 1 h -1 v 1 h -1 -1 v 1 h -1 v 1 h -1 -1 v 1 h -1 -1 v 1 h -1 v 1 1 h -1 v 1 h -1 v 1 h -1 v 1 l -1,1 v 1 h -1 v 1 h -1 v 1 h -1 l -1,1 v 1 h -1 v 1 h -1 v 1 1 1 h -1 v 1 1 h -1 v 1 h -1 v 1 l -1,1 v 1 1 h -1 v 1 1 1 1 l 2,1 h 3 10 v 2 h 19 v 1 1 1 1 1 1 1 1 h 1 v 1 1 1 1 1 h 1 1 1 v 1 1 1 1 1 1 1 1 1 1 1 1 1 1 1 1 1 h 1 v 1 1 1 1 1 1 1 1 1 1 h -1 -1 -1 -1 -1 -1 v 1 1 1 1 1 1 h -1 -1 -1 -1 -1 -1 -1 -1 -1 v 1 1 1 1 1 1 1 1 1 1 1 1 1 1 1 1 h -1 v 1 1 1 h -1 v 1 l -1,1 v 1 h -1 v 1 1 h -1 v 1 1 h -1 -1 -1 -1 -1 -1 -1 -1 -1 -1 -1 -1 -1 -1 v 1 l -1,1 v 1 h -1 v 1 h -1 v 1 h -1 v 1 l -1,1 h -1 -1 -1 -1 -1 -1 -1 -1 -1 -1 -1 -1 -1 -1 -1 -1 -1 -1 -1 v -1 -1 -1 -1 -1 -1 -1 h -1 -1 -1 -1 -1 -1 -1 -1 -1 -1 -1 -1 v 1 1 1 1 1 1 1 h 1 v 1 1 1 1 1 h 1 v 1 1 1 1 1 h 1 v 1 1 1 h -1 -1 -1 -1 -1 -1 -1 -1 -1 -1 -1 -1 -1 -1 -1 -1 -1 -1 -1 -1 -1 -1 -1 -1 -1 -1 -1 -1 -1 -1 -1 -1 v 1 -1 1 h 1 -1 1 v 1 l -1,1 v -1 1 h -1 v -1 h -1 -1 v -1 h -1 v -1 1 -1 h -1 v 1 h 1 -1 v 1 1 h -1 v 1 h 1 v 1 h -1 v 1 -1 h 1 l -1,1 h 1 -1 -1 v 1 -1 1 h -1 v 1 h -1 -1 -1 -1 -1 -1 -1 -1 -1 -1 -1 -1 -1 -1 -1 -1 v -1 -1 h -1 -1 -1 -1 -1 -1 -1 -1 -1 v -1 h -1 -1 -1 v 1 1 1 h 1 v 1 h 1 l -1,1 h -1 v 1 h 1 -1 -1 v -1 1 h -1 v 1 h -1 -1 -1 -1 -1 -1 -1 -1 -1 -1 -1 v 1 -1 h -1 -1 -1 -1 v 1 h -1 v 1 h 1 v 1 1 1 1 1 1 1 1 1 h -1 -1 -1 v -1 h -1 v 1 h -1 -1 -1 v 1 l -1,-1 h -1 -1 -1 -1 -1 -1 -1 v -1 h -1 -1 -1 -1 v 1 h -1 -1 -1 v 1 -1 -1 -1 h -1 -1 l -1,1 h -1 -1 v 1 h -1 -1 -1 -1 -1 v 1 h -1 -1 -1 v -1 -1 h -1 -1 -1 -1 -1 -1 -1 -1 -1 -1 v -1 -1 h -1 -1 -1 -1 -1 -1 v -1 -1 h -1 -1 v 1 1 h 1 v 1 h -1 -1 v -1 -1 h -1 v -1 h -1 1 -1 1 -1 v -1 1 -1 -1 h 1 -1 1 v -1 -1 h -1 1 v -1 -1 -1 -1 -1 -1 -1 h -1 1 -1 v -1 -1 -1 -1 -1 h 1 v -1 -1 -1 -1 -1 h 1 v -1 -1 -1 h -1 v -1 -1 h -1 v -1 -1 -1 h -1 v -1 -1 -1 -1 h -1 v -1 -1 -1 h -1 v -1 -1 h -1 v -1 h -1 v -1 h -1 v -1 h -1 v -1 h -1 v -1 h -1 v -1 h -1 v -1 h -1 v -1 h -1 v -1 h -1 v -1 -1 -1 h -1 v -1 1 -1 1 -1 h -1 1 v -1 h 1 -1 v 1 h 1 v -1 h -1 1 v -1 -1 h -1 v -1 h 1 v -1 h -1 v -1 -1 h -1 v -1 -1 h -1 v -1 -1 h -1 v -1 h -1 v -1 h -1 v -1 h -1 v -1 h 1 -1 -1 v -1 -1 h -1 v -1 h -1 v -1 -1 h -1 v -1 h -1 v -1 h -1 l -1,-1 h -1 v -1 h -1 v -1 h -1 v -1 h -1 v -1 -1 -1 -1 h -1 v -1 -1 -1 -1 h -1 v -1 -1 -1 h -1 1 -1 1 v -1 -1 -1 h 1 v -1 -1 1 -1 h 1 v -1 1 -1 -1 -1 1 1 -1 h -1 v -1 -1 -1 h -1 v -1 -1 -1 h -1 v -1 -1 -1 h -1 v -1 -1 h -1 1 -1 v -1 -1 h -1 v -1 -1 h -1 1 -1 v -1 h -1 v -1 -1 h 1 1 1 1 v -1 -1 -1 -1 h 1 1 1 1 1 1 v 1 1 1 h 1 1 v 1 h 1 1 1 1 1 1 1 v 1 1 1 h 1 1 1 1 1 1 1 1 1 1 1 1 1 1 1 1 1 1 1 1 1 1 1 1 1 1 1 1 1 1 v -1 -1 -1 h 1 1 1 1 1 v -1 h -1" id="Mid_West" style="fill:none" inkscape:label="Mid West" inkscape:highlight-color="#ffffff" class="area" title="">
        <title id="title726">Mid West</title>
      </path>
      <path d="m 355,494 v -1 -1 -1 l -1,-1 h 1 -1 1 -1 1 -1 v -1 -1 -1 1 h 1 v 1 1 1 h 1 v 1 h 1 -1 v 1 h 1 v 1 1 h 1 v 1 1 h 1 v 1 1 1 1 h 1 v 1 h -1 v 1 1 1 h -1 1 -1 v 1 h 1 v -1 h 1 -1 1 -1 v -1 h 1 v -1 -1 1 -1 -1 h 1 -1 v -1 -1 h -1 1 v -1 h 1 v 1 1 l 1,1 h -1 v 1 h 1 v 1 1 1 h -1 1 v 1 1 1 1 1 h 1 v 1 h 1 v -1 h -1 v -1 -1 -1 h 1 v -1 1 1 -1 -1 -1 h 1 -1 1 v 1 1 1 h -1 1 v 1 h -1 1 v 1 1 -1 h 1 v 1 1 1 h 1 1 -1 v -1 -1 -1 1 h 1 1 1 v -1 h 1 v 1 h 1 v -1 -1 l 1,-1 h 1 v -1 h 1 v -1 -1 -1 -1 h -1 v -1 l 1,-1 h -1 1 v -1 h -1 v -1 h -1 v -1 l -1,-1 h -1 v -1 h -1 -1 -1 v -1 h -1 v -1 l -1,-1 v -1 h -1 v -1 h -1 v -1 h -1 -1 1 v -1 1 -1 h -1 1 -1 v -1 -1 -1 -1 -1 h -1 -1 v -1 -1 -1 -1 h -1 -1 v -1 -1 h 1 -1 v -1 h 1 -1 v -1 -1 h -1 1 -1 v 1 h 1 v 1 h -1 1 v 1 -1 h -1 v -1 h -1 v -1 -1 -1 -1 h 1 v -1 h 1 v -1 -1 h 1 v -1 -1 h 1 v 1 1 1 1 h 1 v 1 h 1 1 -1 v -1 h 1 v 1 1 1 1 h 1 v 1 h 1 1 v 1 1 h 1 1 v 1 1 1 h 1 l 1,1 v 1 h -1 v 1 1 1 1 h -1 v 1 h -1 v 1 h 1 -1 v 1 h 1 -1 1 -1 v 1 1 l 1,1 v -1 1 1 l -1,1 h 1 v -1 1 h 1 v -1 h 1 v 1 h 1 v -1 h 1 v -1 h 1 v -1 -1 1 -1 h 1 v -1 -1 h 1 -1 1 v -1 l -1,-1 v -1 -1 -1 1 h 1 1 v 1 h -1 v 1 1 l 1,1 v 1 h -1 1 v 1 1 h 1 v 1 1 1 1 h 1 -1 v 1 1 h 1 v 1 1 1 h 1 1 v 1 l 1,1 1,1 v 1 h 1 -1 v -1 1 h 1 v -1 h 1 v -1 h 1 1 v -1 h 1 v -1 h 1 v -1 -1 h 1 -1 1 v -1 1 -1 l -1,-1 v -1 h -1 v -1 -1 -1 h 1 v -1 -1 1 1 h 1 v -1 -1 -1 -1 1 -1 h -1 v -1 -1 h -1 v -1 h 1 v -1 1 h 1 1 -1 v -1 -1 -1 h 1 v -1 h -1 -1 1 -1 v -1 h 1 -1 -1 v -1 h -1 1 v -1 h -1 l -1,-1 h -1 1 v -1 1 -1 h -1 1 -1 v -1 -1 h -1 v -1 h -1 -1 v -1 l -1,-1 -1,-1 h 1 v 1 -1 h -1 1 -1 v -1 1 -1 -1 1 -1 h -1 v -1 -1 h -1 v -1 -1 l -1,-1 v -1 h -1 1 -1 v -1 -1 -1 h -1 v -1 -1 1 -1 h -1 v -1 -1 -1 h -1 v -1 -1 h -1 -1 v -1 h -1 l -1,-1 h -1 v -1 -1 h -1 v -1 -1 -1 -1 -1 h 1 -1 1 -1 v -1 h -1 v -1 h 1 -1 1 v -1 h 1 1 -1 -1 -1 -1 v -1 1 -1 h 1 v -1 -1 -1 h -1 v -1 l -1,-1 v -1 h -1 v -1 h -1 v -1 h -1 v -1 h -1 v -1 -1 h -1 -1 v -1 h -1 v -1 -1 -1 -1 h -1 v -1 h 1 -1 v -1 h 1 -1 1 v -1 -1 -1 -1 h -1 v -1 -1 h 1 v -1 h 1 v -1 -1 -1 -1 h -1 v -1 h 1 -1 1 l -1,-1 h 1 -1 l 1,-1 h 1 v -1 -1 -1 -1 -1 h 1 v -1 l 1,-1 v -1 -1 -1 h 1 1 v -1 -1 h 1 -1 1 v -1 -1 -1 h 1 v -1 h 1 v -1 h 1 1 v -1 h 1 v -1 h 1 v -1 h 1 v -1 -1 h 1 -1 v -1 h 1 -1 1 v -1 -1 h -1 v -1 h 1 v -1 -1 -1 -1 -1 h -1 1 -1 v -1 -1 -1 -1 -1 h 1 v -1 h 1 v -1 -1 -1 -1 -1 -1 -1 -1 h -1 v -1 -1 -1 h -1 v -1 -1 h -1 v -1 h -1 v -1 h -1 -1 v -1 h 1 v -1 -1 h -1 v -1 -1 h -1 1 -1 l 1,-1 v -1 h 1 1 v -1 -1 h 1 v -1 -1 -1 h 1 v -1 h 1 v -1 -1 h 1 v -1 -1 h 1 v -1 -1 -1 -1 h 1 v -1 -1 h 1 v -1 -1 -1 h 1 v -1 -1 h 1 v -1 -1 -1 h 1 v -1 h 1 v -1 -1 h 1 1 v -1 h 1 v -1 h 1 1 1 v -1 h 1 v 1 h 1 l -1,1 v 1 h -1 v 1 1 1 1 l -1,1 v 1 1 1 h -1 v 1 1 1 1 h -1 1 v 1 1 l 1,1 v 1 h 1 -1 v 1 1 1 -1 1 -1 h 1 1 v 1 1 h -1 v 1 1 -1 h -1 v 1 h 1 v -1 1 h -1 v 1 1 1 h 1 v 1 h -1 1 v 1 -1 1 -1 h 1 v 1 -1 h 1 1 v -1 -1 h 1 v -1 h 1 1 1 v 1 1 1 -1 h 1 v 1 -1 1 -1 h 1 l -1,1 h 1 v -1 1 -1 h 1 -1 1 -1 v -1 h 1 l -1,-1 h 1 v -1 -1 h 1 v 1 -1 h -1 v -1 h 1 -1 1 1 -1 v -1 h 1 -1 -1 1 v -1 h 1 -1 v -1 h 1 v 1 1 h 1 l -1,-1 v -1 h 1 -1 -1 1 1 1 1 1 v 1 1 1 1 1 1 1 1 1 h 1 1 1 1 v 1 1 1 1 1 1 h 1 1 1 1 v 1 1 1 h -1 v 1 1 h -1 v 1 1 h -1 v 1 1 1 h 1 v 1 h -1 -1 v 1 h -1 -1 v 1 1 h -1 -1 -1 -1 -1 v 1 1 h 1 1 1 v 1 1 1 h 1 1 1 1 1 v 1 1 1 h -1 -1 v 1 1 1 1 1 1 1 h 1 1 1 1 1 v 1 1 h 1 1 1 1 1 1 1 1 1 1 1 1 1 1 1 1 1 1 v -1 -1 h 1 1 1 1 1 1 1 1 1 1 1 v 1 1 1 1 h 1 1 v 1 1 1 h 1 1 1 v 1 1 1 1 h 4 v 3 h 1 v 4 h 1 1 v 1 h 4 v 1 h 1 1 1 1 v -1 -1 -1 -1 -1 -1 -1 -1 -1 -1 -1 -1 -1 h 1 1 1 1 v 1 h 1 1 v 1 h 1 1 v 1 h 1 1 1 1 1 v -1 -1 h 1 1 1 1 1 1 1 v -1 -1 -1 h 1 1 1 1 v 1 1 h 1 1 1 1 1 1 1 1 1 1 1 v 1 1 1 1 1 1 1 1 1 h 1 1 1 1 1 1 1 1 1 1 1 1 1 1 1 1 1 1 1 1 1 1 1 1 1 1 1 1 1 1 v 1 1 1 1 h 1 1 1 1 1 1 1 1 v 1 1 1 1 1 1 1 1 1 1 1 1 1 1 1 1 1 1 1 h -1 -1 -1 -1 -1 -1 v 1 1 1 1 1 1 h -1 -1 v 1 1 1 1 1 1 1 h 1 1 1 1 1 1 1 1 1 1 v 1 1 1 h -1 -1 -1 -1 -1 -1 v 1 1 1 h 1 1 1 v 1 1 1 1 1 1 1 1 1 1 1 1 1 1 h -1 -1 v 1 1 1 h 1 v 1 1 1 1 h -1 -1 -1 -1 v -1 h -1 -1 -1 -1 -1 -1 -1 -1 -1 -1 -1 -1 v 1 1 1 1 1 1 1 1 1 h -1 -1 -1 v 1 h -1 -1 v 1 h -1 -1 -1 -1 -1 -1 -1 -1 -1 -1 -1 -1 -1 v -1 -1 h -1 -1 -1 -1 -1 -1 -1 -1 -1 -1 -1 -1 -1 -1 -1 -1 v 2 h -1 -1 v 2 h -1 -1 -1 -1 -1 -1 -1 -1 -1 -1 -1 -1 -1 -1 -1 -1 -1 -1 -1 -1 -1 -1 -1 -1 -1 -1 -1 -1 -1 -1 v 1 1 h -1 -1 -1 -1 v 1 1 1 1 h -1 -1 v 1 h -1 -1 -1 v 1 1 1 1 1 1 h 1 v 1 1 1 1 1 1 1 1 1 1 1 h -1 -1 -1 -1 v 1 1 1 1 1 1 1 1 1 1 1 1 1 1 1 1 1 1 1 1 h -1 -1 -1 -1 v 1 1 1 1 1 1 1 1 1 1 1 1 1 1 1 1 h 1 v 1 h -1 -1 -1 -1 -1 v 1 1 1 h -1 -1 -1 -1 -1 -1 -1 -1 -1 -1 -1 -1 -1 -1 -1 -1 -1 -1 -1 -1 -1 -1 -1 -1 -1 -1 -1 -1 -1 -1 v -1 -1 -1 h -1 -1 -1 -1 -1 -1 -1 v -1 h -1 -1 v -1 -1 -1 h -1 -1 -1 -1 -1 -1 v 1 1 1 1 h -1 -1 -1 -1 -1 v -1 -1 h -1 v -1 h -1 v -1 -1 h -1 v -1 -1 h -1 v -1 h -1 v -1 -1 h -1 v -1 -1 h -1 v -1 h -1 v -1 h -1 v -1 -1 h -1 v -1 h -1 v -1 h -1 v -1 l -1,-1 v -1 h -1 v -1 h -1 v -1 h -1 v -1 h -1 v -1 h -1 v -1 h -1 v -1 h -1 v -1 h -1 v -1 h -1 l -1,-1 h -1 v -1 h -1 v -1 h -1 v -1 h 1 -1 v -1 -1 -1 -1 h -1 v -1 h -1 v -1 l -1,-1 -1,-1 -1,-1 v -1 1 h 1 l 1,1 h 1 1 v 1 1 h 1 v -1 h -1 1 v -1 h -1 1 v -1 -1 -1 -1 -1 -1 -1 h 1 v 1 1 1 1 1 1 1 1 1 1 1 h 1 v 1 h -1 1 v 1 h -1 1 1 v 1 1 h 1 v 1 -1 1 -1 -1 h -1 v -1 -1 -1 h -1 v 1 -1 h 1 v -1 -1 -1 h 1 v -1" id="Gascoyne" style="font-variation-settings:normal;opacity:1;vector-effect:none;fill:none;fill-opacity:1;stroke:#232323;stroke-width:0.4;stroke-linecap:butt;stroke-linejoin:miter;stroke-miterlimit:4;stroke-dasharray:none;stroke-dashoffset:0;stroke-opacity:1;-inkscape-stroke:none;stop-color:#000000;stop-opacity:1" inkscape:label="Gascoyne" inkscape:highlight-color="#ffffff" class="area" title="">
        <title id="title659">Gascoyne</title>
      </path>
      <path d="m 403,327 v 1 -1 h 1 v -1 1 -1 -1 h 1 -1 l 1,-1 v 1 -1 h 1 -1 v -1 -1 -1 h 1 1 v 1 h -1 1 -1 1 v -1 h -1 1 v -1 h 1 1 1 v -1 h 1 v -1 h 1 1 v -1 h 1 v -1 h 1 l 1,-1 h 1 1 1 -1 -1 1 -1 1 -1 1 1 -1 1 1 v 1 -1 h 1 -1 1 -1 1 1 v -1 h 1 v -1 h 1 v 1 h 1 -1 v -1 h 1 1 -1 1 v -1 l 1,1 v -1 h -1 1 1 v -1 h 1 v 1 -1 h 1 v 1 h 1 v -1 h 1 v 1 h 1 -1 v -1 h 1 v -1 h 1 1 v -1 h 1 -1 -1 v 1 -1 h 1 -1 1 1 -1 1 v 1 -1 h 1 v 1 -1 h -1 1 v -1 1 -1 1 1 -1 1 -1 h 1 v -1 1 1 -1 h 1 -1 l 1,1 v -1 -1 1 -1 h 1 -1 -1 1 v -1 1 -1 1 -1 h 1 v -1 1 h -1 1 -1 1 v -1 1 h -1 v -1 h 1 -1 1 -1 1 v -1 1 -1 h 1 v 1 -1 1 h 1 v -1 h -1 1 -1 v -1 h 1 v -1 1 h 1 v -1 h -1 1 v -1 1 h 1 -1 l 1,-1 h -1 1 v -1 h 1 -1 1 v 1 -1 1 -1 h 1 -1 v -1 h 1 v 1 -1 h 1 v -1 h -1 1 v 1 -1 h 1 1 -1 1 v -1 1 h 1 -1 1 v -1 1 -1 h -1 1 v 1 -1 h 1 v 1 -1 h -1 1 -1 1 1 -1 1 1 -1 v -1 1 -1 h 1 -1 v -1 h 1 v -1 -1 h 1 -1 1 v -1 h 1 -1 v -1 h 1 v -1 h 1 v 1 h -1 1 v -1 h 1 v -1 h 1 v -1 h 1 1 1 l 1,-1 h 1 v 1 h -1 1 v 1 -1 h -1 1 v -1 h 1 1 -1 1 -1 v -1 h 1 1 v -1 -1 -1 h 1 v -1 h 1 -1 v 1 h -1 v -1 h 1 v -1 -1 1 h 1 1 v 1 h -1 1 -1 1 1 1 -1 1 -1 1 1 v -1 h 1 1 v -1 h 1 1 1 v 1 h 1 -1 v -1 h -1 1 1 -1 l 1,-1 v 1 -1 h 1 -1 1 -1 1 -1 1 v -1 h 1 v 1 -1 1 -1 h -1 v -1 h 1 v 1 -1 h -1 1 1 1 -1 1 1 -1 v -1 h 1 1 v -1 1 1 -1 1 -1 h 1 -1 1 v 1 h -1 1 -1 1 v -1 1 -1 h -1 1 1 v 1 -1 h -1 1 v -1 1 -1 1 h -1 v -1 1 -1 1 h -1 v -1 h 1 v -1 h 1 1 v -1 h 1 v -1 1 -1 h 1 -1 1 -1 1 -1 1 -1 1 v -1 -1 h 1 v 1 -1 h 1 -1 v -1 h 1 v -1 h 1 1 v 1 h -1 v 1 h -1 v 1 1 h -1 1 v 1 h -1 v 1 h 1 -1 1 v 1 h 1 v 1 h 1 1 1 v -1 1 h 1 -1 1 -1 v 1 -1 h 1 -1 1 1 -1 v -1 h 1 -1 l 1,-1 h 1 -1 1 v -1 h 1 1 v 1 -1 h 1 1 v -1 1 h 1 1 -1 1 v -1 h 1 v -1 h 1 -1 1 v 1 -1 1 1 -1 1 -1 h -1 1 v 1 h -1 1 -1 1 -1 v 1 -1 1 h 1 -1 1 v 1 h -1 1 v -1 1 h 1 v 1 -1 h 1 -1 1 v 1 -1 h 1 v 1 h 1 -1 1 v 1 -1 h 1 1 v 1 h 1 -1 -1 1 v 1 -1 1 -1 1 -1 1 h 1 -1 1 -1 1 -1 1 -1 v -1 h 1 v -1 1 h 1 -1 v 1 h 1 v -1 h -1 1 v 1 h -1 1 v -1 1 -1 -1 h 1 1 -1 v 1 h 1 1 -1 v -1 h 1 1 1 l 1,-1 v 1 h 1 -1 v -1 h 1 1 v -1 h 1 1 v -1 1 h -1 1 v 1 h -1 1 l 1,1 -1,-1 h 1 -1 v -1 h 1 v 1 -1 h 1 v 1 -1 1 -1 h 1 1 1 1 1 -1 -1 v -1 h 1 1 v -1 h 1 v -1 h 1 v -1 h 1 -1 v -1 h 1 v 1 -1 l 1,1 v -1 h 1 v 1 -1 h 1 v 1 -1 -1 1 h -1 v -1 h 1 -1 v -1 h 1 -1 v 1 h -1 1 v -1 -1 1 h 1 l -1,-1 h 1 -1 1 1 1 v -1 h 1 v -1 h 1 v -1 h 1 1 -1 1 v -1 h 1 v -1 h 1 1 -1 1 -1 1 v 1 -1 h -1 v 1 -1 1 h 1 -1 1 v 1 -1 1 -1 h 1 1 v -1 h 1 l 1,1 h -1 1 v -1 1 l 1,-1 h -1 1 v 1 -1 h -1 1 l 1,-1 v 1 1 -1 1 h 1 v -1 1 -1 h 1 v 1 h 1 v -1 h -1 1 -1 1 1 -1 1 v -1 l 1,1 h 1 -1 v -1 h 1 -1 1 v 1 -1 h 1 -1 1 1 -1 1 -1 1 v 1 -1 -1 h -1 1 1 v 1 h -1 1 -1 v 1 -1 1 h 1 v -1 1 h 1 1 -1 -1 1 v -1 1 -1 1 h 1 -1 v -1 h 1 v 1 -1 h -1 -1 1 -1 v -1 h 1 1 1 v 1 h 1 -1 1 v 1 -1 h 1 v -1 h 1 1 1 v -1 h 1 v 1 -1 1 -1 h 1 v 1 -1 h 1 v 1 -1 1 -1 h -1 1 -1 v -1 1 -1 h 1 -1 1 v -1 1 h 1 v 1 -1 l -1,-1 h 1 v -1 -1 h 1 v -1 h 1 1 v -1 h 1 v -1 -1 -1 h 1 l 1,-1 h 1 -1 1 1 v -1 h 1 -1 1 v -1 1 h -1 v -1 h 1 1 1 v 1 1 -1 1 h 1 1 -1 v -1 -1 -1 1 -1 h 1 1 v 1 h 1 -1 1 1 1 v 1 h 1 1 1 v 1 -1 h 1 1 v 1 h 1 1 v -1 1 h 1 v 1 h 1 v 1 h 1 1 -1 1 1 1 v -1 h 1 1 v -1 -1 h 1 v 1 1 -1 h -1 v 1 h 1 -1 1 v -1 h 1 1 -1 v -1 h 1 -1 1 v -1 h -1 1 1 -1 v -1 h 1 v 1 h 1 1 1 1 v -1 h 1 1 1 1 v -1 l 1,1 h 1 v -1 h 1 v 1 1 1 1 1 1 h 1 1 1 1 1 1 1 1 1 1 1 1 1 1 1 1 1 1 1 1 1 1 1 1 v -1 -1 -1 -1 h 1 v -1 -1 -1 -1 h 1 1 1 1 v 1 h 1 1 1 1 1 1 1 1 1 1 1 1 1 v -1 -1 -1 -1 h 1 1 1 1 1 1 1 1 1 1 1 1 v 1 h 1 1 1 v 1 h 1 1 1 1 1 1 1 1 v -1 -1 h 1 1 1 1 1 1 1 1 1 1 1 1 1 1 1 1 1 1 1 1 1 1 1 1 1 1 1 1 1 1 1 1 1 1 1 1 1 1 1 1 1 1 1 1 1 1 1 1 1 1 1 1 1 1 1 1 1 1 1 1 1 1 1 1 1 1 1 1 1 1 1 1 1 1 v -1 -1 -1 -1 -1 -1 -1 -1 -1 -1 -1 -1 h 1 1 1 1 1 1 1 1 1 1 1 1 1 1 1 1 1 1 1 1 1 1 1 1 1 1 1 1 1 1 1 1 1 1 1 1 1 1 1 1 1 1 1 1 1 1 1 1 1 1 1 1 1 1 1 1 1 1 1 1 1 1 1 1 1 1 1 1 1 1 1 1 1 1 1 1 1 1 1 1 1 1 1 1 1 1 1 1 1 1 1 1 1 1 1 1 1 v 1 1 1 1 1 1 1 1 1 1 1 1 1 1 1 1 1 1 1 1 1 1 1 1 1 1 1 1 1 1 1 1 1 1 1 1 1 1 1 1 1 1 1 1 1 1 1 1 1 1 1 1 1 1 1 1 1 1 1 1 1 1 1 1 1 1 1 1 1 1 h 1 1 1 1 1 1 1 1 1 1 1 1 1 1 1 1 1 1 1 1 1 1 1 1 1 1 1 1 1 1 1 1 1 1 1 1 1 1 1 1 1 1 1 1 1 1 1 1 1 1 1 1 1 1 1 1 1 1 1 1 1 1 1 1 1 1 1 1 1 1 1 1 1 1 1 1 1 1 1 1 1 1 1 1 1 1 1 1 1 1 1 1 1 1 1 1 1 1 1 1 1 1 1 1 1 1 1 1 1 1 1 1 1 1 1 1 1 1 1 v -1 -1 1 21 1 1 1 1 15 14 17 8 1 1 1 1 1 1 1 1 1 h -1 -1 -1 -1 -1 -1 -1 -1 -1 -1 -1 -1 -1 -1 -1 -1 -1 -1 -1 -1 -1 -1 -1 -1 -1 -1 -1 -1 -1 -1 -1 -1 -1 -1 -1 -1 -1 -1 -1 -1 -1 -1 -1 -1 -1 -1 -1 -1 -1 -1 -1 -1 -1 -1 -1 -1 -1 -1 -1 -1 -1 -1 -1 -1 -1 -1 -1 -1 -1 -1 -1 -1 -1 -1 -1 -1 -1 -1 -1 -1 -1 -1 -1 -1 -1 -1 -1 -1 -1 -1 -1 -1 -1 -1 -1 -1 -1 -1 -1 -1 -1 -1 -1 -1 -1 -1 -1 -1 -1 -1 -1 -1 -1 -1 -1 -1 -1 -1 -1 -1 -1 -1 -1 -1 -1 -1 -1 -1 -1 -1 -1 -1 -1 -1 -1 -1 -1 -1 -1 -1 -1 -1 -1 -1 -1 -1 -1 -1 -1 -1 -1 -1 -1 -1 -1 -1 -1 -1 -1 -1 -1 -1 -1 -1 -1 -1 -1 -1 -1 -1 -1 -1 -1 -1 -1 -1 -1 -1 -1 -1 -1 -1 -1 -1 -1 -1 -1 -1 -1 -1 -1 -1 -1 -1 -1 -1 -1 -1 -1 -1 -1 -1 -1 -1 -1 -1 -1 -1 -1 -1 -1 -1 -1 -1 -1 -1 -1 -1 -1 -1 -1 -1 -1 -1 -1 -1 -1 -1 -1 -1 -1 -1 -1 -1 -1 -1 -1 -1 -1 -1 -1 -1 -1 -1 -1 -1 -1 -1 -1 -1 -1 -1 -1 -1 -1 -1 -1 -1 -1 -1 -1 -1 -1 -1 -1 -1 -1 -1 -1 -1 -1 -1 -1 -1 -1 -1 -1 -1 -1 -1 -1 -1 -1 -1 -1 -1 -1 -1 -1 -1 -1 -1 -1 -1 -1 -1 -1 -1 -1 -1 -1 -1 -1 -1 -1 -1 -1 -1 -1 -1 -1 -1 -1 -1 -1 -1 -1 v 1 1 1 1 1 1 1 1 1 1 1 h -1 -1 -1 -1 -1 -1 -1 -1 -1 -1 -1 -1 -1 -1 1 v -1 h 1 v -1 -1 h 1 v -1 h 1 v -1 -1 -1 h 1 -1 v -1 h 1 v -1 -1 -1 h -1 -1 -1 -1 -1 -1 -1 -1 -1 -1 -1 -1 -1 -1 -1 -1 -1 -1 -1 -1 -1 -1 -1 -1 -1 -1 -1 -1 -1 -1 -1 -1 -1 -1 -1 -1 -1 -1 -1 -1 -1 -1 -1 -1 -1 -1 -1 -1 -1 -1 -1 -1 -1 -1 -1 -1 -1 -1 -1 -1 -1 -1 -1 -1 -1 -1 -1 -1 -1 -1 -1 -1 -1 -1 -1 -1 v -1 h -1 -1 v 1 h -1 -1 -1 -1 -1 -1 -1 -1 -1 -1 -1 -1 -1 -1 -1 -1 v -1 -1 -1 -1 -1 h -1 -1 -1 -1 -1 -1 -1 -1 -1 -1 v -1 h -1 -1 -1 -1 v 1 1 1 h -1 -1 -1 v 1 h -1 -1 -1 -1 -1 -1 v -1 h -1 -1 -1 -1 -1 v 1 1 1 h -1 -1 -1 v 1 1 h 1 v 1 1 h 1 1 1 v 1 1 1 1 h -1 v 1 1 1 1 h -1 -1 -1 -1 v 1 1 h -1 -1 -1 -1 -1 -1 -1 -1 -1 -1 -1 -1 -1 -1 -1 -1 -1 -1 -1 -1 -1 -1 -1 -1 -1 -1 -1 -1 -1 -1 v -1 -1 -1 -1 -1 -1 -1 -1 -1 h -1 -1 -1 -1 -1 -1 -1 -1 -1 -1 -1 v -1 -1 h -1 -1 -1 -1 v 1 1 1 h -1 -1 -1 -1 -1 -1 -1 v 1 1 h -1 -1 -1 -1 -1 v -1 h -1 -1 v -1 h -1 -1 v -1 h -1 -1 -1 -1 v 1 1 1 1 1 1 1 1 1 1 1 1 1 h -1 -1 -1 -1 v -1 h -4 v -1 h -1 -1 v -4 h -1 v -3 h -4 v -1 -1 -1 -1 h -1 -1 -1 v -1 -1 -1 h -1 -1 v -1 -1 -1 -1 h -1 -1 -1 -1 -1 -1 -1 -1 -1 -1 -1 v 1 1 h -1 -1 -1 -1 -1 -1 -1 -1 -1 -1 -1 -1 -1 -1 -1 -1 -1 -1 v -1 -1 h -1 -1 -1 -1 -1 v -1 -1 -1 -1 -1 -1 -1 h 1 1 v -1 -1 -1 h -1 -1 -1 -1 -1 v -1 -1 -1 h -1 -1 -1 v -1 -1 h 1 1 1 1 1 v -1 -1 h 1 1 v -1 h 1 1 v -1 h -1 v -1 -1 -1 h 1 v -1 -1 h 1 v -1 -1 h 1 v -1 -1 -1 h -1 -1 -1 -1 v -1 -1 -1 -1 -1 -1 h -1 -1 -1 -1 v -1 -1 -1 -1 -1 -1 -1 -1 -1 h -1 -1 -1 -1 -1 v -1 h 1 1 -1 1 -1 v -1 1 h 1 v -1 1 -1 h -1 v -1 1 -1 h 1 1 -1 v -1 h 1 -1 v -1 h -1 1 1 v 1 -1 1 -1 h 1 -1 v -1 h 1 v -1 -1 1 -1 h 1 -1 v -1 h 1 v -1 -1 h 1 v 1 h -1 1 v -1 1 -1 h 1 -1 1 -1 1 -1 1 v -1" id="Pilbara" style="fill:none" inkscape:label="Pilbara" inkscape:highlight-color="#ffffff" class="area" title="">
        <title id="title523">Pilbara</title>
      </path>
      <path d="m 742,119 v -1 h -1 v 1 1 1 h 1 1 v 1 1 h 1 v 1 -1 h -1 v 1 1 1 h 1 v 1 -1 1 h 1 1 v 1 1 h 1 v 1 h 1 v 1 1 1 h 1 v 1 h 1 v 1 h 1 v 1 1 1 h 1 v 1 1 1 1 h 1 1 v 1 h 1 v 1 h 1 v 1 h 1 v 1 h 1 v 1 1 -1 1 l 1,1 h -1 1 -1 1 1 v 1 1 1 -1 h 1 l -1,-1 h 1 v -1 h -1 v -1 -1 -1 h -1 v -1 h 1 v -1 -1 h 1 v -1 -1 -1 -1 -1 h 1 v -1 -1 -1 h -1 v -1 l -1,-1 v -1 -1 -1 h 1 v -1 h 1 1 v 1 1 h 1 1 1 v 1 h 1 v 1 1 h 1 v 1 h 1 v 1 h 1 v 1 h 1 v 1 h 1 1 v -1 h -1 v -1 h -1 v -1 h -1 v -1 -1 -1 h -1 v -1 -1 -1 h -1 1 v -1 l 1,-1 h 1 v -1 h 1 v -1 h 1 v -1 h 1 1 v -1 -1 h -1 v 1 h -1 v 1 h -1 v -1 1 -1 1 h -1 v 1 h -1 -1 l -1,1 v -1 h -1 v -1 -1 -1 h -1 v -1 h -1 v -1 -1 h -1 -1 v -1 h -1 v -1 -1 h -1 -1 1 -1 -1 v -1 1 h -1 v -1 1 -1 1 h -1 v -1 h 1 -1 1 v -1 1 l 1,-1 v 1 -1 h 1 -1 v -1 1 -1 h 1 -1 1 v -1 h 1 -1 1 v -1 h -1 -1 -1 v 1 h -1 v 1 -1 h -1 1 -1 1 v -1 h -1 -1 v -1 h -1 v -1 h 1 l -1,1 h 1 v -1 1 -1 1 h 1 1 l -1,-1 h 1 -1 v -1 h -1 1 -1 1 1 v 1 h 1 1 v 1 h 1 1 -1 1 1 -1 v -1 1 h -1 v -1 1 -1 h 1 1 1 v -1 1 -1 h -1 -1 v -1 h -1 -1 v -1 h -1 1 -1 -1 v -1 1 -1 1 h 1 1 1 -1 v -1 1 -1 h -1 1 -1 -1 v -1 1 h 1 1 1 -1 1 1 v 1 h -1 1 1 1 v 1 h 1 v -1 h -1 1 1 -1 v -1 1 -1 h -1 v -1 h -1 v -1 1 h 1 v 1 -1 h 1 -1 1 1 v -1 h -1 1 -1 v -1 h -1 -1 v -1 h -1 v 1 h 1 -1 -1 1 -1 v -1 h -1 v -1 h 1 1 -1 v -1 h 1 v 1 -1 h -1 v -1 h 1 v 1 -1 h -1 v 1 -1 h -1 1 1 -1 v -1 h -1 v 1 -1 h 1 -1 1 -1 v -1 h 1 -1 1 1 -1 1 1 -1 1 1 v -1 1 h 1 -1 v -1 h 1 v 1 -1 h 1 v 1 h -1 1 -1 1 -1 1 v 1 -1 -1 1 h 1 -1 v -1 h 1 v 1 -1 1 -1 h -1 1 -1 v -1 1 h 1 v 1 -1 l 1,1 h 1 v 1 h 1 -1 v 1 h 1 v -1 1 -1 1 h -1 -1 1 v 1 -1 1 h 1 -1 1 v 1 h -1 v -1 1 -1 h -1 v 1 -1 1 -1 h -1 v 1 h 1 v 1 h 1 -1 1 v 1 h 1 v -1 1 h 1 1 v 1 h 1 v 1 h -1 1 -1 -1 v -1 1 h 1 -1 v 1 h 1 -1 1 v 1 1 -1 1 h 1 -1 v -1 h 1 1 -1 v -1 h 1 -1 v -1 -1 l 1,1 v -1 h -1 1 -1 v -1 -1 1 h 1 v 1 h 1 v 1 h 1 1 v -1 h -1 1 -1 v -1 h -1 1 -1 v -1 h 1 -1 1 v -1 1 -1 1 -1 h 1 v 1 -1 1 h 1 -1 v -1 1 -1 1 -1 h -1 1 -1 v -1 h -1 1 -1 1 -1 v -1 1 h -1 v -1 h 1 v 1 h 1 1 v 1 -1 h 1 v 1 -1 1 -1 1 -1 1 h 1 v -1 1 h 1 v 1 -1 h 1 1 v 1 -1 1 -1 h 1 -1 v 1 h 1 -1 1 -1 1 1 1 v 1 h -1 1 v 1 -1 1 1 h 1 -1 1 v 1 h -1 1 -1 1 v 1 h 1 1 1 1 -1 1 1 v 1 h -1 v 1 h 1 -1 1 v -1 1 -1 h 1 1 v 1 h 1 v 1 h -1 1 -1 1 -1 1 v 1 h -1 v 1 h 1 v -1 1 -1 h 1 v -1 h 1 -1 1 -1 v -1 h -1 v 1 -1 h -1 1 v -1 h -1 1 v -1 h -1 -1 -1 v -1 1 -1 h 1 v -1 -1 h 1 1 v 1 h 1 -1 v 1 h 1 1 -1 1 l -1,1 h 1 v -1 1 -1 h 1 v 1 -1 h 1 1 v 1 l 1,-1 v 1 h 1 1 v -1 h 1 1 1 1 1 1 1 v 1 h 1 1 v 1 -1 h 1 1 1 v -1 h 1 v -1 h 1 -1 v 1 -1 h -1 v 1 1 h -1 -1 -1 -1 v -1 h -1 v -1 h -1 -1 -1 v -1 h -1 -1 -1 -1 -1 v -1 h -1 -1 v 1 h -1 -1 -1 -1 v 1 l -1,-1 v 1 -1 1 -1 -1 l -1,1 v -1 h 1 v -1 h -1 1 -1 v -1 h 1 v -1 h -1 v -1 -1 -1 h 1 1 v 1 -1 -1 -1 -1 -1 h 1 1 v 1 h -1 v 1 h 1 v 1 h 1 v 1 h -1 v 1 h 1 -1 1 -1 1 v -1 1 -1 1 h 1 -1 v -1 h 1 v 1 -1 h -1 1 v -1 1 -1 h 1 v -1 h 1 1 l 1,-1 h -1 1 -1 v 1 h -1 v -1 -1 -1 -1 -1 -1 h 1 v 1 h 1 v -1 l -1,1 v -1 h -1 v -1 h 1 v -1 -1 h 1 v -1 -1 h 1 v 1 1 h 1 v -1 h -1 1 -1 1 v -1 h 1 v -1 h -1 1 1 -1 v -1 h -1 v -1 h 1 -1 1 v -1 h -1 l 1,1 h -1 v 1 h -1 v -1 h 1 -1 1 v -1 h 1 -1 v 1 h -1 v 1 h -1 v -1 1 h -1 1 -1 v 1 h -1 v 1 1 h -1 v 1 h -1 v 1 1 1 h -1 v 1 h -1 v -1 -1 h 1 v -1 1 -1 1 h -1 v -1 1 -1 1 h -1 v -1 l 1,1 v -1 -1 h -1 1 v -1 h -1 1 -1 1 -1 v -1 -1 -1 1 h -1 1 l -1,1 v -1 1 1 h -1 v -1 1 -1 -1 -1 h -1 v -1 h 1 -1 v -1 1 -1 -1 1 -1 h 1 v 1 -1 1 -1 h 1 -1 -1 v -1 h 1 -1 v -1 1 h -1 v -1 h 1 v 1 h 1 v -1 1 -1 -1 1 h 1 v -1 1 h 1 v -1 h -1 v -1 -1 l 1,1 h -1 1 1 v 1 -1 h -1 v -1 h -1 v 1 -1 h -1 v 1 -1 l 1,-1 h -1 1 -1 v -1 1 -1 h 1 1 v -1 1 -1 -1 h 1 v 1 h 1 -1 1 -1 v -1 h -1 v 1 -1 l -1,1 v -1 h 1 l 1,-1 1,1 v -1 1 h 1 v -1 1 h 1 v 1 -1 h 1 v 1 h -1 1 1 1 -1 1 v -1 1 -1 h -1 v -1 h 1 -1 1 -1 v -1 h 1 v 1 -1 -1 1 h 1 -1 v 1 h 1 v 1 -1 1 h 1 v -1 h -1 v -1 -1 h 1 -1 v -1 h 1 1 v -1 1 -1 h 1 -1 -1 l 1,-1 h -1 v 1 h -1 v -1 -1 1 -1 l 1,1 v -1 h 1 -1 v -1 h -1 1 -1 v -1 h 1 -1 1 v 1 h 1 v -1 h -1 1 1 v 1 h 1 -1 1 v 1 1 h -1 v 1 h 1 v -1 -1 h 1 v -1 1 -1 1 h 1 1 -1 1 -1 1 v -1 1 1 1 -1 h 1 v 1 -1 h 1 v 1 h 1 1 v 1 h -1 1 -1 1 1 -1 l 1,1 h 1 v 1 1 h -1 -1 l 1,1 h -1 1 -1 1 v -1 1 -1 1 -1 h 1 v 1 h -1 1 -1 1 v -1 1 1 -1 1 -1 1 -1 l 1,1 v -1 h -1 1 -1 1 -1 v -1 h 1 v 1 -1 1 1 -1 1 h -1 1 -1 1 l -1,1 h 1 v -1 h 1 -1 1 -1 1 v -1 1 -1 1 -1 -1 1 -1 h 1 1 1 v 1 h 1 v 1 h 1 v 1 h 1 1 v 1 h 1 v 1 h 1 1 v 1 -1 1 h 1 v 1 h 1 l 1,1 h 1 v 1 h 1 -1 v -1 h -1 l -1,-1 h -1 v -1 h -1 v -1 h -1 1 -1 -1 v -1 h -1 v -1 1 -1 h -1 v -1 h -1 l -1,-1 v 1 -1 h -1 v -1 h -1 1 -1 v -1 h -1 v -1 h 1 -1 1 v -1 -1 -1 1 -1 h 1 -1 1 1 v -1 1 -1 h 1 l -1,1 h 1 v -1 h -1 1 -1 1 -1 1 -1 1 -1 v 1 h -1 v -1 h 1 -1 1 -1 v 1 -1 1 h -1 1 -1 v -1 h 1 -1 1 v -1 1 -1 h -1 l 1,1 h -1 v -1 h 1 -1 1 -1 1 l -1,-1 h 1 -1 v 1 -1 -1 1 h -1 v -1 1 h 1 -1 1 v 1 h -1 1 v 1 h -1 -1 v -1 -1 h -1 1 v 1 h -1 1 -1 1 -1 v 1 h -1 v 1 h -1 -1 -1 v 1 -1 h -1 1 -1 1 v -1 h -1 1 -1 v 1 -1 h -1 v -1 h 1 -1 1 v -1 1 -1 h 1 -1 1 -1 1 v -1 h 1 -1 1 -1 1 v -1 1 -1 h 1 v 1 -1 h 1 v 1 h 1 -1 v -1 h 1 v -1 h 1 -1 1 1 v -1 h -1 1 -1 -1 v 1 h -1 v -1 1 -1 h -1 v 1 -1 1 1 h -1 v -1 1 h -1 v 1 h -1 1 -1 v 1 h -1 1 l -1,-1 h 1 -1 v -1 h 1 -1 v -1 h 1 v -1 1 -1 h -1 v 1 h -1 1 v -1 h -1 v 1 -1 1 -1 -1 1 -1 h 1 1 v -1 h 1 1 v 1 -1 h 1 v 1 h 1 -1 1 v -1 h 1 v -1 1 h 1 v -1 -1 h -1 1 -1 v -1 -1 -1 h 1 v 1 -1 h 1 1 v 1 h -1 v 1 h 1 -1 v 1 h 1 v -1 h 1 l 1,1 h -1 1 -1 v 1 h 1 v 1 1 h 1 v 1 -1 h 1 v -1 h 1 v 1 -1 h -1 1 1 1 v -1 1 -1 l 1,1 v -1 1 -1 1 h -1 v 1 h 1 1 l -1,1 h 1 1 l -1,-1 h 1 v 1 -1 1 h 1 v -1 h 1 v 1 h 1 1 v -1 1 -1 h 1 v 1 -1 h 1 -1 -1 -1 -1 v -1 h -1 -1 1 1 v -1 -1 h -1 1 v -1 h 1 1 v -1 h 1 -1 1 -1 1 -1 1 v -1 1 -1 1 -1 1 h -1 v -1 1 -1 1 h -1 v -1 1 1 h -1 -1 v -1 -1 1 h -1 v -1 h -1 v 1 h -1 v -1 1 -1 1 -1 h -1 1 v -1 h -1 v 1 -1 1 h -1 v -1 -1 h 1 -1 v 1 h -1 1 -1 v -1 1 -1 1 -1 h 1 -1 1 -1 v -1 h 1 v 1 -1 h 1 -1 1 -1 1 v 1 h 1 v -1 h 1 -1 v -1 1 h 1 -1 l 1,-1 h -1 1 v 1 -1 h 1 -1 -1 v -1 1 -1 h -1 -1 v -1 1 h -1 v -1 1 -1 h -1 v -1 -1 h -1 1 -1 1 -1 1 -1 1 -1 v -1 h -1 v 1 -1 -1 1 -1 1 -1 h 1 -1 1 1 v 1 -1 -1 h -1 1 -1 1 -1 1 1 v -1 1 -1 -1 1 -1 1 -1 h 1 v 1 h 1 -1 v -1 h 1 v 1 -1 h 1 1 l -1,-1 h -1 1 -1 -1 1 -1 v -1 h 1 -1 1 v -1 h 1 v -1 h 1 v 1 -1 1 -1 h 1 v -1 -1 h 1 v 1 h -1 1 -1 1 -1 1 -1 1 -1 1 v 1 h -1 1 v 1 h -1 1 1 v -1 1 -1 1 -1 -1 h 1 l -1,1 h 1 v -1 1 1 -1 1 1 h 1 v 1 h -1 1 v -1 -1 1 h 1 v -1 h -1 1 v -1 -1 h 1 -1 1 v 1 -1 -1 h 1 v 1 h 1 v -1 h 1 -1 l 1,1 h -1 v 1 h -1 v -1 1 h 1 1 1 -1 v -1 h 1 v -1 h 1 -1 v -1 -1 -1 h 1 v -1 1 -1 -1 h -1 v -1 -1 h -1 v -1 h 1 v -1 -1 h -1 1 v -1 1 -1 h 1 v 1 -1 h 1 v 1 -1 1 h 1 v 1 h 1 v 1 -1 1 h 1 v -1 1 h -1 v 1 h 1 v -1 1 h -1 1 -1 1 -1 v 1 -1 1 -1 1 -1 1 -1 h -1 v 1 1 h -1 v 1 h 1 v 1 h -1 1 -1 1 v 1 1 -1 1 -1 1 h 1 v 1 h -1 v 1 1 1 h -1 v 1 1 1 -1 h 1 v -1 -1 -1 h 1 v -1 -1 -1 h 1 1 1 v -1 h 1 v -1 1 h 1 -1 v 1 h 1 v -1 h 1 v 1 h -1 v 1 1 h 1 -1 v 1 h 1 -1 v 1 h 1 v 1 h 1 v 1 h 1 v 1 h 1 v -1 1 -1 -1 -1 h -1 v -1 1 -1 h 1 -1 1 v -1 h 1 v -1 h 1 v 1 1 -1 1 h 1 v -1 h 1 -1 l 1,-1 v 1 h 1 v -1 -1 h -1 v -1 1 -1 -1 -1 h -1 -1 v -1 1 h 1 v -1 h 1 v -1 h 1 1 1 -1 v -1 1 -1 h 1 l -1,-1 v 1 -1 -1 h -1 l 1,-1 h -1 1 v -1 h 1 1 1 v -1 h -1 1 v -1 -1 h 1 -1 v -1 h -1 v -1 -1 h -1 -1 -1 v 1 h -1 v -1 h -1 v -1 h -1 v -1 -1 -1 1 h 1 v 1 h 1 -1 v 1 h 1 -1 1 v -1 1 -1 -1 1 h 1 -1 1 v -1 h -1 V 9 h 1 1 v 1 1 1 -1 h 1 v 1 -1 h -1 v -1 l 1,1 V 10 9 h -1 1 -1 V 8 h -1 -1 V 7 h -1 1 1 -1 1 v 1 h 1 V 7 h -1 1 V 6 h 1 l -1,1 h 1 -1 1 -1 v 1 h 1 V 7 h 1 -1 1 V 8 7 h 1 V 6 7 8 h -1 1 v 1 h -1 v 1 h -1 v 1 h 1 -1 1 v -1 h 1 V 9 h 1 1 V 8 h 1 v 1 h -1 -1 v 1 h -1 v 1 -1 h 1 1 1 v 1 -1 1 1 h -1 -1 -1 v 1 h 1 v -1 1 -1 1 l 1,-1 v 1 h -1 v 1 h -1 1 v -1 h 1 1 -1 1 -1 v 1 h 1 -1 1 v 1 h -1 -1 1 v 1 h -1 1 v 1 h 1 1 -1 1 v 1 h -1 v 1 h 1 1 v -1 1 -1 1 h 1 v -1 h 1 v -1 h 1 -1 v -1 -1 h -1 v 1 -1 -1 h 1 -1 v 1 h 1 v -1 h -1 1 1 v -1 -1 h -1 1 1 1 v -1 h -1 1 v -1 h 1 V 9 h 1 v 1 h 1 V 9 h 1 V 8 h 1 V 7 l 1,1 1,-1 v 1 h -1 1 -1 -1 v 1 1 h -1 -1 v 1 h 1 -1 1 v 1 h -1 l -1,1 v 1 h 1 1 v -1 h 1 v 1 -1 h -1 v 1 1 1 h 1 -1 1 -1 1 1 v -1 h 1 v 1 h -1 v 1 h 1 -1 1 v 1 h -1 l 1,1 h 1 v -1 -1 h 1 1 v -1 -1 -1 -1 h 1 v 1 -1 1 h 1 -1 v 1 h 1 1 v -1 h -1 v -1 h 1 v 1 -1 -1 h 1 v -1 -1 h -1 1 -1 v 1 h -1 V 10 9 h 1 v 1 h 1 V 9 h 1 1 -1 1 -1 1 -1 1 -1 1 v 1 -1 1 -1 1 -1 h 1 -1 1 1 1 v 1 h 1 V 9 h -1 V 8 h -1 V 7 h -1 -1 V 6 5 h -1 1 -1 V 4 h -1 1 L 886,3 V 2 1 h 1 -1 1 -1 1 1 -1 1 1 v 1 1 h 1 V 2 h -1 1 1 L 890,1 V 0 h 1 1 V 1 0 1 h 1 1 l -1,-1 h -1 1 1 1 v 1 l 1,1 V 1 2 1 l 1,1 h -1 1 -1 v 1 h 1 V 2 h 1 v 1 h -1 v 1 h 1 V 3 h 1 v 1 h -1 v 1 h 1 -1 v 1 h 1 V 5 h 1 v 1 1 h -1 1 v 1 h 1 -1 v 1 h 1 V 8 9 h 1 -1 1 V 8 9 8 7 h 1 -1 V 6 h 1 v 1 h 1 -1 v 1 h 1 V 9 8 9 8 7 8 h 1 V 7 6 h 1 -1 1 1 v 1 l 1,1 V 7 8 h 1 1 V 7 h -1 V 6 h 1 v 1 h 1 l 1,1 h 1 -1 1 V 7 8 9 h 1 v 1 1 1 h 1 v 1 -1 h 1 v 1 -1 1 h 1 -1 v 1 -1 1 -1 h 1 v 1 h -1 1 -1 l 1,1 v -1 h 1 v 1 h 1 v 1 -1 h 1 l -1,1 h 1 v -1 1 -1 1 h 1 v 1 h 1 -1 1 v 1 h 1 -1 v 1 h 1 v -1 1 1 -1 1 h 1 v 1 h 1 v 1 h 1 v 1 h 1 v 1 h -1 1 v 1 h 1 -1 1 v 1 h 1 v 1 h -1 v 1 h 1 v 1 h 1 1 v -1 1 1 h 1 1 v 1 h 1 -1 v 1 h 1 v 1 h 1 v -1 h 1 v 1 -1 1 h 1 v 1 h 1 v 1 1 h 1 v -1 1 h 1 1 v 1 h 1 -1 1 v 1 h 1 1 v 1 1 -1 h -1 v 1 1 h -1 v 1 h 1 -1 1 v 1 h -1 -1 v 1 h -1 1 v 1 l -1,1 v 1 1 1 1 h -1 v 1 h 1 -1 v 1 h 1 -1 v 1 h -1 v 1 h 1 v 1 1 1 1 1 1 1 h -1 v 1 -1 h -1 l 1,1 v 1 l 1,1 v 1 1 1 h -1 v 1 1 h -1 -1 v 1 h -1 1 v -1 h 1 1 l 1,-1 1,-1 v -1 -1 -1 -1 h 1 v -1 -1 h -1 v -1 l -1,-1 h 1 -1 1 v -1 -1 h 1 v 1 h 1 1 v 1 h 1 v 1 h 1 v 1 l 1,1 v 1 h 1 v 1 1 1 1 1 h 1 v 1 1 h 1 v -1 h -1 v -1 h -1 v -1 h 1 v -1 h -1 v -1 -1 -1 -1 -1 h -1 v -1 h -1 v -1 -1 h -1 v -1 -1 -1 -1 h -1 v -1 -1 h 1 v -1 -1 h 1 v -1 h 1 1 v -1 1 h 1 v 1 1 h 1 -1 v -1 -1 l -1,-1 v -1 h 1 v 1 h 1 v 1 1 1 h 1 v 1 -1 -1 -1 1 h 1 v 1 h 1 v -1 h -1 v -1 h -1 l -1,-1 1,-1 v -1 -1 1 h 1 v 1 h 1 v 1 1 h 1 v 1 l 1,-1 h -1 v -1 -1 h -1 v -1 -1 h -1 1 1 v 1 1 h 1 v 1 h 1 v 1 h 1 v 1 -1 -1 h -1 l -1,-1 v -1 -1 l -1,-1 v -1 h -1 -1 v -1 1 -1 h 1 v -1 1 h 1 1 v -1 h 1 1 1 -1 1 v -1 1 h 1 1 v 1 h 1 v -1 h 1 1 1 v 1 h 1 v 1 h 1 1 1 v 1 h 1 1 1 1 1 1 -1 1 v 1 -1 1 -1 1 h 1 v -1 1 -1 1 h 1 v 7 1 7 1 3 1 1 1 9 1 7 3 2 5 1 1 2 2 8 1 6 6 2 3 2 7 1 13 29 1 9 8 5 3 4 1 4 3 1 1 1 3 7 12 11 36 2 1 3 1 1 1 1 h -1 -1 -1 -1 -1 -1 -1 -1 -1 -1 -1 -1 -1 -1 -1 -1 -1 -1 -1 -1 -1 -1 -1 -1 -1 -1 -1 -1 -1 -1 -1 -1 -1 -1 -1 -1 -1 -1 -1 -1 -1 -1 -1 -1 -1 -1 -1 -1 -1 -1 -1 -1 -1 -1 -1 -1 -1 -1 -1 -1 -1 -1 -1 -1 -1 -1 -1 -1 -1 -1 -1 -1 -1 -1 -1 -1 -1 -1 -1 -1 -1 -1 -1 -1 -1 -1 -1 -1 -1 -1 -1 -1 -1 -1 -1 -1 -1 -1 -1 -1 -1 -1 -1 -1 -1 -1 -1 -1 -1 -1 -1 -1 -1 -1 -1 -1 -1 -1 -1 v -1 -1 -1 -1 -1 -1 -1 -1 -1 -1 -1 -1 -1 -1 -1 -1 -1 -1 -1 -1 -1 -1 -1 -1 -1 -1 -1 -1 -1 -1 -1 -1 -1 -1 -1 -1 -1 -1 -1 -1 -1 -1 -1 -1 -1 -1 -1 -1 -1 -1 -1 -1 -1 -1 -1 -1 -1 -1 -1 -1 -1 -1 -1 -1 -1 -1 -1 -1 -1 -1 h -1 -1 -1 -1 -1 -1 -1 -1 -1 -1 -1 -1 -1 -1 -1 -1 -1 -1 -1 -1 -1 -1 -1 -1 -1 -1 -1 -1 -1 -1 -1 -1 -1 -1 -1 -1 -1 -1 -1 -1 -1 -1 -1 -1 -1 -1 -1 -1 -1 -1 -1 -1 -1 -1 -1 -1 -1 -1 -1 -1 -1 -1 -1 -1 -1 -1 -1 -1 -1 -1 -1 -1 -1 -1 -1 -1 -1 -1 -1 -1 -1 -1 -1 -1 -1 -1 -1 -1 -1 -1 -1 -1 -1 -1 -1 -1 -1 v 1 1 1 1 1 1 1 1 1 1 1 1 h -1 -1 -1 -1 -1 -1 -1 -1 -1 -1 -1 -1 -1 -1 -1 -1 -1 -1 -1 -1 -1 -1 -1 -1 -1 -1 -1 -1 -1 -1 -1 -1 -1 -1 -1 -1 -1 -1 -1 -1 -1 -1 -1 -1 -1 -1 -1 -1 -1 -1 -1 -1 -1 -1 -1 -1 -1 -1 -1 -1 -1 -1 -1 -1 -1 -1 -1 -1 -1 -1 -1 -1 -1 -1 v 1 1 h -1 -1 -1 -1 -1 -1 -1 -1 v -1 h -1 -1 -1 v -1 h -1 -1 -1 -1 -1 -1 -1 -1 -1 -1 -1 -1 v 1 1 1 1 h -1 -1 -1 -1 -1 -1 -1 -1 -1 -1 -1 -1 -1 v -1 h -1 -1 -1 -1 v 1 1 1 1 h -1 v 1 1 1 1 h -1 -1 -1 -1 -1 -1 -1 -1 -1 -1 -1 -1 -1 -1 -1 -1 -1 -1 -1 -1 -1 -1 -1 -1 v -1 -1 -1 -1 -1 -1 h 1 1 1 1 1 1 v -1 h 1 1 1 l 1,-1 h 1 1 v -1 h 1 1 1 v -1 h 1 1 1 v -1 h 1 1 1 v -1 h 1 1 1 v -1 h 1 1 v -1 h 1 1 l 1,-1 h 1 1 v -1 h 1 1 l 1,-1 h 1 1 v -1 h 1 1 v -1 h 1 v -1 h 1 1 v -1 h 1 v -1 h 1 1 v -1 h 1 v -1 h 1 l 1,-1 1,-1 v -1 h 1 v -1 h 1 v -1 h 1 v -1 h 1 v -1 h 1 v -1 l 1,-1 v -1 h 1 v -1 l 1,-1 v -1 h 1 v -1 l 1,-1 v -1 -1 h 1 v -1 -1 h 1 v -1 l -1,-1 h 1 v 1 -1 h 1 -1 1 v -1 -1 -1 h 1 v -1 h 1 -1 1 v -1 1 -1 -1 -1 -1 h -1 v -1 h 1 -1 1 1 1 v -1 1 h 1 l 1,-1 v 1 -1 -1 h 1 1 v -1 -1 h -1 1 -1 1 -1 v -1 h -1 -1 v -1 h 1 1 v -1 -1 h 1 v 1 -1 h 1 v -1 h -1 1 -1 v 1 -1 -1 h 1 v -1 h 1 v 1 h 1 1 1 v -1 h 1 1 v -1 h 1 v -1 h 1 l 1,-1 v -1 h 1 l 1,-1 h 1 1 v -1 h 1 v -1 1 -1 -1 h 1 -1 v 1 h 1 v -1 h 1 -1 v -1 h 1 1 v -1 h 1 1 1 v -1 h 1 v -1 h 1 v -1 -1 -1 -1 -1 -1 h -1 -1 -1 l -1,-1 h -1 v 1 h -1 -1 v 1 -1 h -1 1 v -1 -1 -1 l 1,-1 v -1 l -1,-1 v -1 -1 -1 -1 -1 -1 -1 h -1 v 1 -1 -1 -1 -1 h -1 v -1 -1 -1 -1 -1 -1 -1 -1 -1 h 1 v -1 -1 -1 -1 1 -1 h 1 v -1 h 1 -1 1 -1 v 1 -1 h 1 v -1 -1 1 -1 1 h 1 v -1 -1 1 -1 1 -1 h 1 1 1 -1 v -1 l 1,1 v -1 h -1 v -1 1 h -1 -1 v -1 h 1 v -1 h 1 v -1 h 1 1 v -1 h 1 v -1 l 1,-1 h 1 v -1 h 1 1 v -1 1 h -1 v 1 h -1 1 v 1 -1 h 1 -1 1 v 1 -1 -1 -1 -1 l 1,1 h -1 1 1 v 1 h -1 1 1 1 1 v 1 -1 h -1 1 -1 v -1 -1 h -1 v -1 -1 1 -1 h -1 v -1 h 1 1 -1 1 -1 1 v 1 -1 1 -1 h -1 v -1 h 1 v -1 1 -1 h 1 1 v 1 h 1 1 v -1 h 1 v 1 -1 h 1 1 v -1 h 1 -1 v 1 -1 h 1 v 1 -1 1 h 1 v -1 h -1 1 v 1 h 1 v 1 -1 1 h 1 v -1 h -1 v -1 h -1 v -1 h -1 v 1 -1 -1 h -1 1 -1 v -1 -1 h 1 v -1 -1 -1 1 -1 h 1 v -1 h 1 -1 v 1 -1 h 1 v 1 -1 h 1 v -1 h 1 -1 v -1 1 -1 h 1 v 1 -1 h 1 v -1 -1 -1 h 1 v -1 h 1 1 v -1 l 1,1 h -1 1 v -1 h -1 1 1 v -1 1 1 h -1 l 1,1 v 1 h 1 1 -1 v 1 h -1 1 v -1 h -1 v 1 -1 h -1 v 1 l -1,-1 v 1 h 1 v 1 h -1 v 1 h 1 -1 v 1 1 h -1 v 1 h 1 1 v 1 h -1 1 v 1 -1 l 1,-1 v 1 1 1 h 1 v 1 h 1 v -1 1 h 1 v 1 h 1 v -1 h 1 v 1 h -1 v 1" id="Kimberley" style="fill:none" inkscape:label="Kimberley" inkscape:highlight-color="#ffffff" class="area" title=""></path>
    </g>
  </g>
  <!-- QGIS extent for clipping, eg in Inkscape -->
</svg>
